<?xml version="1.0" encoding="UTF-8"?>
<!DOCTYPE svg PUBLIC "-//W3C//DTD SVG 1.1//EN" "http://www.w3.org/Graphics/SVG/1.1/DTD/svg11.dtd">
<!-- Creator: CorelDRAW 2019 (64 Bit) -->
<svg xmlns="http://www.w3.org/2000/svg" xml:space="preserve" width="210mm" height="297mm" version="1.1" style="shape-rendering:geometricPrecision; text-rendering:geometricPrecision; image-rendering:optimizeQuality; fill-rule:evenodd; clip-rule:evenodd"
viewBox="0 0 21000 29700"
 xmlns:xlink="http://www.w3.org/1999/xlink">
 <defs>
  <style type="text/css">
   <![CDATA[
    .fil2 {fill:#5CA47A;fill-rule:nonzero}
    .fil0 {fill:#5CA47A;fill-rule:nonzero}
    .fil1 {fill:white;fill-rule:nonzero}
   ]]>
  </style>
    <mask id="id0">
  <linearGradient id="id1" gradientUnits="userSpaceOnUse" x1="4825.1" y1="13371.06" x2="4860.81" y2="8675.91">
   <stop offset="0" style="stop-opacity:0; stop-color:white"/>
   <stop offset="1" style="stop-opacity:1; stop-color:white"/>
  </linearGradient>
     <rect style="fill:url(#id1)" x="3083.41" y="8998.29" width="3307.35" height="2809.96"/>
    </mask>
    <mask id="id2">
  <linearGradient id="id3" gradientUnits="userSpaceOnUse" x1="4825.1" y1="13371.06" x2="4860.81" y2="8675.91">
   <stop offset="0" style="stop-opacity:0; stop-color:white"/>
   <stop offset="1" style="stop-opacity:1; stop-color:white"/>
  </linearGradient>
     <rect style="fill:url(#id3)" x="3083.41" y="8998.29" width="3307.35" height="2809.96"/>
    </mask>
 </defs>
 <g id="Camada_x0020_1">
  <metadata id="CorelCorpID_0Corel-Layer"/>
  <g id="_2234045720976">
   <path class="fil0" d="M9284.71 11174.41c0,40.46 -8.99,77.61 -26.55,111.6 -17.78,33.99 -42.33,63.23 -73.48,87.73 -31.15,24.66 -68.28,43.79 -111.21,57.7 -42.92,13.91 -89.44,20.86 -139.75,20.86l-410.69 0c-10.78,0 -20.97,-1.58 -30.35,-4.58 -9.38,-3.17 -17.37,-7.43 -24.36,-12.81 -6.78,-5.37 -12.18,-11.85 -15.97,-19.12 -3.99,-7.43 -5.79,-15.5 -5.79,-24.19l0 -542.66c0,-8.38 1.8,-16.29 5.79,-23.72 3.79,-7.42 9.19,-13.9 15.97,-19.44 6.99,-5.53 14.98,-9.8 24.36,-12.96 9.38,-3 19.57,-4.58 30.35,-4.58l410.69 0c50.31,0 96.83,6.95 139.75,20.86 42.93,13.91 80.06,33.04 111.21,57.54 31.15,24.66 55.7,53.9 73.48,88.05 17.56,34.14 26.55,71.29 26.55,111.44l0 108.28zm-152.14 -108.28c0,-23.55 -4.79,-45.05 -14.37,-64.5 -9.59,-19.44 -22.97,-36.03 -40.53,-49.79 -17.57,-13.59 -38.54,-24.34 -62.9,-31.93 -24.35,-7.58 -51.51,-11.38 -81.05,-11.38l-335.22 0 0 423.32 335.22 0c29.54,0 56.7,-3.79 81.05,-11.22 24.36,-7.59 45.33,-18.34 62.9,-32.09 17.56,-13.75 30.94,-30.19 40.53,-49.48 9.58,-19.28 14.37,-40.78 14.37,-64.65l0 -108.28zm990.88 114.76l-480.36 0 0 -121.24 480.36 0 0 121.24zm68.29 271.41l-548.65 0c-20.96,0 -43.93,-3 -68.89,-8.85 -24.95,-5.85 -48.11,-15.49 -69.47,-28.93 -21.17,-13.43 -38.93,-30.82 -53.11,-52.32 -14.38,-21.5 -21.36,-47.74 -21.36,-78.88l0 -434.38c0,-8.38 1.99,-16.29 5.78,-23.72 4,-7.42 9.19,-13.9 16.18,-19.44 6.79,-5.53 14.78,-9.8 24.16,-12.96 9.39,-3 19.57,-4.58 30.54,-4.58l684.82 0 0 120.29 -609.35 0 0 374.79c0,15.65 5.2,27.67 15.78,36.04 10.38,8.38 25.95,12.49 46.12,12.49l547.45 0 0 120.45zm986.29 -664.06l-397.31 640.51c-6.19,9.8 -15.38,17.7 -27.75,23.71 -12.19,6.17 -25.76,9.17 -40.54,9.17 -14.57,0 -27.94,-3 -40.13,-9.17 -12.37,-6.01 -21.75,-13.91 -28.35,-23.71l-396.71 -640.51 170.3 0 294.89 478.32 295.89 -478.32 169.71 0zm775.65 392.65l-480.36 0 0 -121.24 480.36 0 0 121.24zm68.29 271.41l-548.65 0c-20.97,0 -43.93,-3 -68.89,-8.85 -24.95,-5.85 -48.11,-15.49 -69.47,-28.93 -21.17,-13.43 -38.93,-30.82 -53.11,-52.32 -14.38,-21.5 -21.36,-47.74 -21.36,-78.88l0 -434.38c0,-8.38 1.99,-16.29 5.78,-23.72 4,-7.42 9.19,-13.9 16.18,-19.44 6.79,-5.53 14.77,-9.8 24.16,-12.96 9.38,-3 19.56,-4.58 30.54,-4.58l684.82 0 0 120.29 -609.35 0 0 374.79c0,15.65 5.19,27.67 15.78,36.04 10.38,8.38 25.95,12.49 46.12,12.49l547.45 0 0 120.45zm917.2 0l-693.79 0c-10.79,0 -20.97,-1.58 -30.35,-4.58 -9.39,-3.17 -17.57,-7.43 -24.36,-12.81 -6.79,-5.37 -12.18,-11.85 -15.97,-19.12 -3.99,-7.43 -5.99,-15.5 -5.99,-24.19l0 -603.36 152.14 0 0 543.61 618.32 0 0 120.45zm979.31 -268.56c0,40.46 -8.79,77.61 -26.36,111.59 -17.57,33.99 -41.93,63.23 -73.07,87.89 -31.34,24.82 -68.28,43.95 -111.01,57.7 -42.53,13.75 -89.04,20.71 -139.36,20.71l-206.04 0c-50.31,0 -96.83,-6.96 -139.76,-20.71 -42.92,-13.75 -79.86,-32.88 -111.01,-57.7 -31.34,-24.66 -55.7,-53.9 -73.47,-87.89 -17.77,-33.98 -26.55,-71.13 -26.55,-111.59l0 -126.94c0,-40.15 8.78,-77.29 26.55,-111.44 17.77,-33.98 42.13,-63.38 73.47,-87.89 31.15,-24.5 68.09,-43.78 111.01,-57.7 42.93,-13.91 89.45,-20.86 139.76,-20.86l206.04 0c50.32,0 96.83,6.95 139.36,20.86 42.73,13.92 79.67,33.2 111.01,57.7 31.14,24.51 55.5,53.91 73.07,87.89 17.57,34.15 26.36,71.29 26.36,111.44l0 126.94zm-152.14 -126.94c0,-23.71 -4.79,-45.36 -14.37,-64.65 -9.59,-19.28 -22.97,-35.73 -40.34,-49.47 -17.36,-13.76 -38.13,-24.35 -62.68,-31.93 -24.36,-7.6 -51.12,-11.39 -80.27,-11.39l-206.04 0c-29.55,0 -56.5,3.79 -80.86,11.39 -24.36,7.58 -45.32,18.17 -62.89,31.93 -17.57,13.74 -31.15,30.19 -40.73,49.47 -9.58,19.29 -14.38,40.94 -14.38,64.65l0 126.94c0,23.7 4.8,45.21 14.38,64.49 9.58,19.28 23.16,35.88 40.73,49.63 17.57,13.76 38.53,24.35 62.89,31.94 24.36,7.58 51.31,11.37 80.86,11.37l204.85 0c29.54,0 56.5,-3.79 81.05,-11.37 24.36,-7.59 45.32,-18.18 62.7,-31.94 17.57,-13.75 31.14,-30.35 40.73,-49.63 9.58,-19.28 14.37,-40.79 14.37,-64.49l0 -126.94zm1138.23 9.33c0,27.35 -4.39,52.01 -12.98,73.5 -8.58,21.66 -20.16,40.79 -34.73,57.23 -14.58,16.6 -31.55,30.66 -50.52,42.36 -19.16,11.85 -39.13,21.34 -60.09,28.77 -20.77,7.43 -41.93,12.8 -63.1,16.12 -21.16,3.48 -41.12,5.22 -59.89,5.22l-344 0 0 -120.45 344 0c19.37,-1.27 37.14,-4.43 52.91,-9.49 15.77,-5.05 29.35,-12.01 40.73,-20.55 11.18,-8.69 19.96,-19.12 26.15,-31.3 6.39,-12.17 9.39,-26.08 9.39,-41.41l0 -54.69c-2,-15.18 -5.99,-29.09 -12.19,-41.74 -6.38,-12.64 -14.77,-23.39 -25.55,-32.4 -10.58,-8.85 -23.56,-15.96 -38.93,-21.02 -15.18,-5.06 -32.75,-7.75 -52.51,-7.75l-342.81 0c-20.36,0 -35.73,4.27 -46.32,12.65 -10.37,8.22 -15.77,20.39 -15.77,36.04l0 495.08 -151.94 0 0 -495.08c0,-30.83 6.99,-57.07 21.37,-78.72 14.18,-21.66 31.94,-39.05 53.11,-52.33 21.36,-13.27 44.32,-22.92 69.28,-28.92 24.96,-6.01 48.12,-9.01 69.08,-9.01l344 0c34.34,0 65.09,3.47 92.44,10.43 27.15,6.95 51.31,16.13 72.08,27.82 20.96,11.54 38.73,24.82 53.3,39.99 14.58,15.18 26.76,30.99 36.34,47.43 9.58,16.59 16.37,33.19 20.76,50.11 4.2,16.75 6.39,32.56 6.39,47.42l0 54.69zm819.58 114.76l-480.37 0 0 -121.24 480.37 0 0 121.24zm68.28 271.41l-548.65 0c-20.96,0 -43.92,-3 -68.88,-8.85 -24.95,-5.85 -48.11,-15.49 -69.48,-28.93 -21.16,-13.43 -38.93,-30.82 -53.11,-52.32 -14.37,-21.5 -21.36,-47.74 -21.36,-78.88l0 -434.38c0,-8.38 2,-16.29 5.79,-23.72 4,-7.42 9.19,-13.9 16.17,-19.44 6.79,-5.53 14.78,-9.8 24.16,-12.96 9.39,-3 19.57,-4.58 30.55,-4.58l684.81 0 0 120.29 -609.35 0 0 374.79c0,15.65 5.2,27.67 15.78,36.04 10.38,8.38 25.96,12.49 46.12,12.49l547.45 0 0 120.45zm985.09 -440.86c0,27.5 -4.39,52 -12.98,73.66 -8.58,21.5 -20.16,40.62 -34.74,57.22 -14.57,16.44 -31.54,30.51 -50.71,42.37 -18.96,11.69 -38.93,21.34 -59.89,28.92 -20.77,7.59 -41.93,12.96 -63.09,16.44 -21.37,3.32 -41.33,5.06 -60.1,5.06l317.65 217.19 -234.99 0 -317.05 -217.19 -109.41 0 0 -120.45 343.8 0c19.17,-1.27 36.74,-4.43 52.51,-9.49 15.77,-5.06 29.35,-12.01 40.93,-20.55 11.38,-8.69 20.36,-19.12 26.55,-31.3 6.19,-12.17 9.39,-26.08 9.39,-41.88l0 -76.04c0,-6.8 -1,-11.85 -3.2,-15.49 -2.2,-3.48 -4.99,-6.16 -8.19,-7.75 -3.39,-1.73 -6.78,-2.84 -10.58,-3.16 -3.79,-0.31 -7.18,-0.47 -10.18,-0.47l-501.93 0 0 543.77 -152.13 0 0 -603.36c0,-8.38 1.99,-16.29 5.99,-23.72 3.79,-7.42 9.18,-13.9 15.97,-19.44 6.78,-5.53 14.97,-9.8 24.35,-12.96 9.39,-3 19.57,-4.58 30.35,-4.58l577.4 0c33.94,0 62.49,4.9 85.85,14.54 23.56,9.8 42.53,21.97 57.1,36.67 14.58,14.54 25.16,30.35 31.55,47.43 6.59,16.91 9.78,32.88 9.78,47.73l0 76.83z"/>
   <path class="fil1" d="M8257.64 9663.61l-657.46 0 0 984.58 -298.55 0 0 -984.58 -659.02 0 0 -217.81 1615.03 0 0 217.81zm1565.65 984.58l-298.56 0 0 -601.34c0,-28.34 -9.79,-50.09 -29.78,-64.97 -19.97,-14.6 -49.75,-22.04 -89.32,-22.04l-538.34 0 0 -218.1 538.34 0c28.2,0 57.98,2.29 89.32,7.16 31.36,4.86 62.7,12.02 93.65,22.32 30.95,10.02 60.73,22.9 88.94,38.93 28.21,15.74 53.28,35.2 74.44,57.82 21.55,22.61 38.8,48.65 51.72,78.42 12.93,29.48 19.59,63.25 19.59,100.46l0 601.34zm-1076.68 0l-298.55 0 0 -1289.69 298.55 0 0 1289.69zm2706.59 -109.91c0,15.74 -3.53,30.34 -11.36,43.79 -7.84,13.17 -18.02,24.9 -31.74,34.63 -13.32,9.73 -28.99,17.46 -47.01,23.19 -18.02,5.44 -37.22,8.3 -57.99,8.3l-674.69 0c-36.83,0 -76.01,-3.15 -117.94,-9.16 -41.52,-6.3 -82.67,-16.03 -123.02,-29.77 -40.74,-13.74 -79.93,-31.19 -117.93,-52.09 -37.61,-20.89 -70.92,-46.37 -99.13,-76.13 -28.21,-30.06 -51.33,-64.69 -68.18,-103.61 -17.23,-39.22 -25.85,-83.29 -25.85,-132.52l0 -503.17 298.16 0 0 503.17c0,28.33 6.66,54.1 20.37,76.71 13.32,22.6 31.35,42.07 54.46,58.1 22.73,16.31 49.76,28.91 80.72,37.49 30.95,8.59 64.65,12.88 100.69,12.88l522.28 0 0 -688.35 298.16 0 0 796.54zm1561.35 -190.33c0,30.33 -7.45,62.68 -21.94,97.6 -14.5,35.2 -38.01,67.54 -70.52,97.31 -32.53,30.05 -74.84,54.95 -127.34,75.28 -52.5,20.03 -115.97,30.05 -191.2,30.05l-538.34 0c-41.14,0 -85.81,-5.44 -133.61,-16.03 -47.8,-10.59 -92.47,-27.76 -133.21,-51.52 -41.14,-23.75 -75.23,-54.67 -102.66,-93.02 -27.81,-38.35 -41.53,-84.72 -41.53,-139.67 0,-30.06 7.44,-62.97 21.94,-98.18 14.5,-35.2 38.01,-67.54 70.53,-97.59 32.52,-29.77 75.23,-54.96 127.33,-74.99 52.5,-20.04 116.37,-30.34 191.21,-30.34l538.34 0 0 208.08 -538.34 0c-40.36,0 -71.7,9.16 -94.04,27.19 -22.33,18.31 -33.3,40.64 -33.3,67.55 0,28.61 12.93,50.66 38.4,66.68 25.85,16.03 56.03,23.76 91.29,23.76l535.99 0c40.75,0 72.09,-8.87 94.03,-26.62 22.33,-18.03 33.3,-40.36 33.3,-67.26l0 -304.25c0,-28.62 -11.75,-51.23 -36.04,-68.12 -23.91,-16.6 -54.46,-24.9 -91.29,-24.9l-655.5 0 0 -207.22 655.5 0c41.53,0 85.81,5.44 133.6,16.03 48.19,10.59 92.47,27.76 133.22,51.52 41.13,23.76 75.23,54.67 103.04,93.02 27.43,38.35 41.14,84.72 41.14,139.67l0 305.97zm1629.91 300.24l-298.56 0 0 -503.17c0,-28.34 -6.65,-54.09 -19.97,-76.7 -13.32,-22.62 -31.36,-42.08 -54.47,-58.39 -23.12,-16.03 -49.75,-28.63 -81.11,-37.21 -30.94,-8.59 -64.25,-12.88 -100.29,-12.88l-522.28 0 0 688.35 -298.56 0 0 -798.26c0,-15.17 3.92,-29.19 11.76,-42.36 7.44,-13.16 18.41,-24.61 32.13,-34.34 13.71,-9.74 29.77,-17.46 48.19,-23.19 18.41,-5.43 38.01,-8.3 58.38,-8.3l672.73 0c37.61,0 77.18,3.15 118.72,9.16 41.92,6.3 83.06,16.03 124.2,29.77 40.75,13.74 79.92,31.2 116.75,52.09 37.23,20.89 70.14,46.36 98.74,76.13 28.99,30.06 51.72,64.69 68.57,103.61 16.84,39.22 25.07,83.29 25.07,132.52l0 503.17zm1636.97 0l-298.56 0 0 -503.17c0,-28.34 -6.66,-54.09 -19.98,-76.7 -13.32,-22.62 -31.35,-42.08 -54.46,-58.39 -23.12,-16.03 -49.76,-28.63 -81.11,-37.21 -30.95,-8.59 -64.25,-12.88 -100.3,-12.88l-522.27 0 0 688.35 -298.56 0 0 -798.26c0,-15.17 3.92,-29.19 11.76,-42.36 7.44,-13.16 18.41,-24.61 32.13,-34.34 13.7,-9.74 29.76,-17.46 48.18,-23.19 18.42,-5.43 38.01,-8.3 58.38,-8.3l672.74 0c37.61,0 77.18,3.15 118.71,9.16 41.93,6.3 83.06,16.03 124.21,29.77 40.74,13.74 79.92,31.2 116.75,52.09 37.22,20.89 70.14,46.36 98.74,76.13 28.99,30.06 51.71,64.69 68.56,103.61 16.85,39.22 25.08,83.29 25.08,132.52l0 503.17zm1630.3 87.29c0,37.5 -6.66,70.98 -19.59,101.04 -12.93,29.76 -30.17,56.1 -51.71,78.7 -21.55,22.62 -46.24,42.08 -74.45,57.82 -28.6,16.03 -57.99,28.91 -88.94,38.93 -31.34,10.3 -62.29,17.74 -93.64,22.32 -31.34,4.87 -61.12,7.16 -89.72,7.16l-538.35 0 0 -218.1 538.35 0c39.96,0 69.74,-7.44 89.72,-22.61 19.99,-15.17 29.78,-36.92 29.78,-65.26l0 -993.74 298.55 0 0 993.74zm-418.05 -87.29l-538.35 0c-42.7,0 -88.55,-5.44 -137.12,-16.03 -48.59,-10.59 -94.04,-28.05 -135.96,-52.38 -41.93,-24.33 -76.8,-55.81 -104.61,-94.74 -27.43,-38.92 -41.15,-86.43 -41.15,-142.82l0 -600.48 298.56 0 0 600.48c0,28.34 10.18,50.09 30.96,65.26 20.37,15.17 51.32,22.61 91.68,22.61l535.99 0 0 218.1z"/>
   <path class="fil2" style="mask:url(#id0)" d="M3666.91 9486.95c-471.45,-15.14 -758.58,539.19 -454.06,916.39 -302.23,374.47 -21.04,931.64 454.06,916.38 40.47,271.55 249.04,484.72 501.69,484.72 280.94,0 509.47,-261.24 509.47,-582.34 0,-61.72 0,-31.2 0,-127.5 0,-213.77 0,-1462.66 0,-1510.03 0,-248.13 -136.72,-459.95 -328.39,-543.68 -307.02,-133.54 -630.29,92.97 -682.77,446.06zm861.29 97.62l0 0c0,117.47 0,686.83 0,775.04l-606.85 0c-51.92,-125.05 -251.23,-90.1 -251.23,43.73 0,134.03 199.43,168.5 251.23,43.73l606.85 0 0 362.91 0 284.62 -220.96 0c-18.82,-45.42 -65.77,-77.73 -121.06,-77.73 -71.87,0 -130.13,54.37 -130.13,121.47 0,134.03 199.5,168.53 251.19,43.72l220.96 0 0 40.04c0,243.96 -161.32,442.43 -359.6,442.43 -162.61,0 -299.73,-133.85 -343.97,-316.45l0 -555.79 267.35 0c18.85,45.4 65.8,77.74 121.1,77.74 71.88,0 130.12,-54.39 130.12,-121.48 0,-67.09 -58.24,-121.45 -130.12,-121.45 -55.3,0 -102.25,32.32 -121.1,77.74 -84.02,0 -287.45,0 -361.04,0 0,156.67 0,311.71 0,467.85 -263.97,49.87 -493.29,-158.12 -493.29,-416.54 0,-147.16 75.87,-278.07 185.54,-352.81 -82.28,-56.09 -148.66,-146.35 -174.26,-255.94l190.08 0 0 609.6c-134.02,48.43 -96.53,234.5 46.83,234.5 143.57,0 180.54,-186.17 46.85,-234.5l0 -609.6c119.86,0 519.15,0 649.01,0 51.99,125.07 251.27,90.1 251.27,-43.71 0,-51.64 -34.65,-95.45 -83.29,-113.04 0,-79.62 0,-706.77 0,-787.7 106.57,76.85 178.52,218.96 178.52,381.62zm-272.2 39.22l0 0 0 366.86c-34.12,12.33 -61.05,37.49 -74.3,69.31l-217.67 0 0 -110.38c134.26,-48.59 96.28,-234.51 -46.86,-234.51 -143.37,0 -180.79,186.05 -46.83,234.51l0 110.38 -632.28 0c-7.17,-311.03 304.19,-517.27 576.45,-400.98 -42.59,-310.09 185.93,-581.86 441.49,-503.08 0,156.16 0,311.22 0,467.89zm1551.86 1695.93c491.82,10.46 748.12,-552.13 454.03,-916.41 78.05,-96.7 125.06,-219.32 125.06,-352.79 0,-312.43 -257.9,-571.27 -579.09,-563.6 -10.68,-71.47 -32.84,-138.37 -64.05,-198.52 -264.92,-510.93 -947.13,-290.09 -947.13,296.17 0,61.71 0,31.19 0,127.47 0,213.78 0,1462.66 0,1510.03 0,337.42 244.65,582.35 509.46,582.35 251.74,0 460.87,-210.02 501.72,-484.7zm-861.31 -97.65l0 0c0,-117.42 0,-686.86 0,-775.02l606.85 0c52.02,125.02 251.26,90.11 251.26,-43.74 0,-133.64 -199.16,-168.97 -251.26,-43.72l-606.85 0c0,-117.11 0,-510.79 0,-647.55l220.97 0c51.89,125.07 251.22,90.1 251.22,-43.72 0,-134.02 -199.44,-168.52 -251.22,-43.73l-220.97 0 0 -40.02c0,-243.97 161.32,-442.44 359.59,-442.44 162.65,0 299.74,133.81 343.97,316.45l0 555.79 -267.3 0c-52.01,-125.08 -251.24,-90.06 -251.24,43.73 0,133.64 199.15,169.02 251.24,43.72 83.98,0 287.35,0 361,0l0 -87.45 0 -380.4c264.96,-50.05 493.29,159.12 493.29,416.55 0,147.7 -76.17,278.21 -185.51,352.79 82.47,56.26 148.77,146.56 174.23,255.94l-190.03 0 0 -609.59c48.62,-17.59 83.29,-61.4 83.29,-113.03 0,-67.09 -58.26,-121.47 -130.13,-121.47 -71.88,0 -130.14,54.38 -130.14,121.47 0,51.63 34.63,95.44 83.28,113.03l0 609.59c-119.41,0 -519.54,0 -649.04,0 -51.94,-125.13 -251.22,-90.05 -251.22,43.72 0,51.63 34.62,95.44 83.27,113.04 0,262.74 0,524.4 0,787.69 -106.6,-76.87 -178.55,-218.93 -178.55,-381.63zm272.26 -406.06l0 0c34.1,-12.33 61.02,-37.49 74.24,-69.3l217.68 0 0 110.38c-134.27,48.59 -96.25,234.49 46.85,234.49 143.37,0 180.79,-186.06 46.82,-234.49l0 -110.38 632.28 0c7.19,311.21 -304.08,517.07 -576.45,400.98 43.12,313.59 -189.03,581.22 -441.42,503.04 0,-192.37 0,-671.21 0,-834.72z"/>
   <path class="fil0" style="mask:url(#id2)" d="M3666.91 9486.95c-471.45,-15.14 -758.58,539.19 -454.06,916.39 -302.23,374.47 -21.04,931.64 454.06,916.38 40.47,271.55 249.04,484.72 501.69,484.72 280.94,0 509.47,-261.24 509.47,-582.34 0,-61.72 0,-31.2 0,-127.5 0,-213.77 0,-1462.66 0,-1510.03 0,-248.13 -136.72,-459.95 -328.39,-543.68 -307.02,-133.54 -630.29,92.97 -682.77,446.06zm861.29 97.62l0 0c0,117.47 0,686.83 0,775.04l-606.85 0c-51.92,-125.05 -251.23,-90.1 -251.23,43.73 0,134.03 199.43,168.5 251.23,43.73l606.85 0 0 362.91 0 284.62 -220.96 0c-18.82,-45.42 -65.77,-77.73 -121.06,-77.73 -71.87,0 -130.13,54.37 -130.13,121.47 0,134.03 199.5,168.53 251.19,43.72l220.96 0 0 40.04c0,243.96 -161.32,442.43 -359.6,442.43 -162.61,0 -299.73,-133.85 -343.97,-316.45l0 -555.79 267.35 0c18.85,45.4 65.8,77.74 121.1,77.74 71.88,0 130.12,-54.39 130.12,-121.48 0,-67.09 -58.24,-121.45 -130.12,-121.45 -55.3,0 -102.25,32.32 -121.1,77.74 -84.02,0 -287.45,0 -361.04,0 0,156.67 0,311.71 0,467.85 -263.97,49.87 -493.29,-158.12 -493.29,-416.54 0,-147.16 75.87,-278.07 185.54,-352.81 -82.28,-56.09 -148.66,-146.35 -174.26,-255.94l190.08 0 0 609.6c-134.02,48.43 -96.53,234.5 46.83,234.5 143.57,0 180.54,-186.17 46.85,-234.5l0 -609.6c119.86,0 519.15,0 649.01,0 51.99,125.07 251.27,90.1 251.27,-43.71 0,-51.64 -34.65,-95.45 -83.29,-113.04 0,-79.62 0,-706.77 0,-787.7 106.57,76.85 178.52,218.96 178.52,381.62zm-272.2 39.22l0 0 0 366.86c-34.12,12.33 -61.05,37.49 -74.3,69.31l-217.67 0 0 -110.38c134.26,-48.59 96.28,-234.51 -46.86,-234.51 -143.37,0 -180.79,186.05 -46.83,234.51l0 110.38 -632.28 0c-7.17,-311.03 304.19,-517.27 576.45,-400.98 -42.59,-310.09 185.93,-581.86 441.49,-503.08 0,156.16 0,311.22 0,467.89zm1551.86 1695.93c491.82,10.46 748.12,-552.13 454.03,-916.41 78.05,-96.7 125.06,-219.32 125.06,-352.79 0,-312.43 -257.9,-571.27 -579.09,-563.6 -10.68,-71.47 -32.84,-138.37 -64.05,-198.52 -264.92,-510.93 -947.13,-290.09 -947.13,296.17 0,61.71 0,31.19 0,127.47 0,213.78 0,1462.66 0,1510.03 0,337.42 244.65,582.35 509.46,582.35 251.74,0 460.87,-210.02 501.72,-484.7zm-861.31 -97.65l0 0c0,-117.42 0,-686.86 0,-775.02l606.85 0c52.02,125.02 251.26,90.11 251.26,-43.74 0,-133.64 -199.16,-168.97 -251.26,-43.72l-606.85 0c0,-117.11 0,-510.79 0,-647.55l220.97 0c51.89,125.07 251.22,90.1 251.22,-43.72 0,-134.02 -199.44,-168.52 -251.22,-43.73l-220.97 0 0 -40.02c0,-243.97 161.32,-442.44 359.59,-442.44 162.65,0 299.74,133.81 343.97,316.45l0 555.79 -267.3 0c-52.01,-125.08 -251.24,-90.06 -251.24,43.73 0,133.64 199.15,169.02 251.24,43.72 83.98,0 287.35,0 361,0l0 -87.45 0 -380.4c264.96,-50.05 493.29,159.12 493.29,416.55 0,147.7 -76.17,278.21 -185.51,352.79 82.47,56.26 148.77,146.56 174.23,255.94l-190.03 0 0 -609.59c48.62,-17.59 83.29,-61.4 83.29,-113.03 0,-67.09 -58.26,-121.47 -130.13,-121.47 -71.88,0 -130.14,54.38 -130.14,121.47 0,51.63 34.63,95.44 83.28,113.03l0 609.59c-119.41,0 -519.54,0 -649.04,0 -51.94,-125.13 -251.22,-90.05 -251.22,43.72 0,51.63 34.62,95.44 83.27,113.04 0,262.74 0,524.4 0,787.69 -106.6,-76.87 -178.55,-218.93 -178.55,-381.63zm272.26 -406.06l0 0c34.1,-12.33 61.02,-37.49 74.24,-69.3l217.68 0 0 110.38c-134.27,48.59 -96.25,234.49 46.85,234.49 143.37,0 180.79,-186.06 46.82,-234.49l0 -110.38 632.28 0c7.19,311.21 -304.08,517.07 -576.45,400.98 43.12,313.59 -189.03,581.22 -441.42,503.04 0,-192.37 0,-671.21 0,-834.72z"/>
  </g>
 </g>
</svg>
