<svg width="650" height="844" viewBox="0 0 650 844" fill="none" xmlns="http://www.w3.org/2000/svg">
<path d="M433.147 216.604V378.075C433.147 380.66 431.055 382.759 428.47 382.759H164.393C161.808 382.759 159.708 380.66 159.708 378.075V216.604C159.708 214.019 161.808 211.92 164.393 211.92H428.47C431.055 211.92 433.147 214.019 433.147 216.604Z" fill="#1A2349"/>
<path d="M172.749 233.849L172.952 233.876C172.93 234.016 172.873 234.126 172.781 234.206C172.69 234.285 172.577 234.325 172.444 234.325C172.277 234.325 172.142 234.27 172.04 234.161C171.939 234.052 171.888 233.895 171.888 233.691C171.888 233.559 171.91 233.443 171.954 233.344C171.998 233.246 172.064 233.172 172.153 233.122C172.243 233.073 172.34 233.048 172.445 233.048C172.578 233.048 172.686 233.081 172.771 233.149C172.855 233.216 172.909 233.311 172.933 233.434L172.731 233.465C172.712 233.383 172.678 233.321 172.629 233.28C172.581 233.239 172.522 233.218 172.453 233.218C172.349 233.218 172.264 233.256 172.199 233.331C172.134 233.405 172.101 233.523 172.101 233.685C172.101 233.849 172.133 233.968 172.195 234.043C172.258 234.117 172.34 234.154 172.442 234.154C172.523 234.154 172.591 234.129 172.645 234.08C172.7 234.03 172.734 233.953 172.749 233.849ZM173.052 233.686C173.052 233.46 173.115 233.292 173.241 233.183C173.346 233.093 173.474 233.048 173.625 233.048C173.793 233.048 173.93 233.103 174.037 233.213C174.144 233.323 174.197 233.475 174.197 233.669C174.197 233.826 174.173 233.95 174.126 234.04C174.079 234.13 174.01 234.2 173.92 234.25C173.83 234.3 173.732 234.325 173.625 234.325C173.454 234.325 173.316 234.27 173.21 234.16C173.105 234.05 173.052 233.892 173.052 233.686ZM173.265 233.686C173.265 233.843 173.299 233.96 173.368 234.038C173.436 234.116 173.522 234.154 173.625 234.154C173.728 234.154 173.813 234.115 173.882 234.037C173.95 233.959 173.984 233.839 173.984 233.679C173.984 233.528 173.95 233.414 173.881 233.336C173.812 233.258 173.727 233.219 173.625 233.219C173.522 233.219 173.436 233.258 173.368 233.335C173.299 233.413 173.265 233.53 173.265 233.686ZM174.441 234.297V233.075H174.626V233.247C174.664 233.187 174.715 233.139 174.779 233.103C174.843 233.066 174.915 233.048 174.996 233.048C175.087 233.048 175.161 233.066 175.218 233.104C175.277 233.142 175.318 233.194 175.341 233.262C175.438 233.119 175.564 233.048 175.719 233.048C175.84 233.048 175.933 233.081 175.998 233.149C176.063 233.216 176.096 233.319 176.096 233.458V234.297H175.89V233.527C175.89 233.445 175.883 233.385 175.869 233.349C175.856 233.312 175.832 233.283 175.797 233.26C175.762 233.238 175.72 233.227 175.673 233.227C175.587 233.227 175.516 233.256 175.459 233.313C175.402 233.37 175.374 233.461 175.374 233.587V234.297H175.167V233.503C175.167 233.411 175.15 233.342 175.116 233.296C175.082 233.25 175.027 233.227 174.95 233.227C174.892 233.227 174.838 233.242 174.788 233.273C174.739 233.304 174.703 233.349 174.681 233.408C174.659 233.467 174.648 233.552 174.648 233.663V234.297H174.441ZM176.403 234.765V233.075H176.592V233.234C176.636 233.172 176.687 233.126 176.743 233.095C176.799 233.063 176.866 233.048 176.946 233.048C177.05 233.048 177.142 233.075 177.222 233.128C177.302 233.182 177.362 233.258 177.403 233.356C177.443 233.453 177.464 233.56 177.464 233.677C177.464 233.802 177.441 233.915 177.396 234.015C177.351 234.115 177.286 234.191 177.2 234.245C177.115 234.298 177.025 234.325 176.931 234.325C176.862 234.325 176.8 234.31 176.745 234.281C176.69 234.252 176.646 234.215 176.61 234.17V234.765H176.403ZM176.591 233.693C176.591 233.85 176.623 233.966 176.686 234.042C176.75 234.117 176.827 234.154 176.917 234.154C177.009 234.154 177.088 234.116 177.153 234.038C177.219 233.96 177.252 233.839 177.252 233.676C177.252 233.52 177.22 233.404 177.155 233.326C177.092 233.249 177.016 233.21 176.927 233.21C176.838 233.21 176.76 233.251 176.692 233.334C176.624 233.416 176.591 233.536 176.591 233.693ZM177.71 234.297V232.611H177.917V234.297H177.71ZM179.075 233.904L179.289 233.93C179.256 234.055 179.193 234.152 179.102 234.221C179.011 234.29 178.894 234.325 178.752 234.325C178.573 234.325 178.432 234.27 178.326 234.16C178.222 234.05 178.17 233.895 178.17 233.696C178.17 233.491 178.223 233.331 178.329 233.218C178.435 233.104 178.572 233.048 178.741 233.048C178.904 233.048 179.037 233.103 179.141 233.214C179.244 233.326 179.296 233.482 179.296 233.684C179.296 233.696 179.296 233.714 179.295 233.739H178.384C178.392 233.873 178.43 233.976 178.498 234.047C178.566 234.119 178.651 234.154 178.753 234.154C178.829 234.154 178.894 234.134 178.948 234.094C179.001 234.055 179.044 233.991 179.075 233.904ZM178.395 233.569H179.078C179.068 233.466 179.042 233.389 178.999 233.338C178.933 233.258 178.848 233.218 178.743 233.218C178.648 233.218 178.568 233.25 178.502 233.313C178.438 233.377 178.402 233.462 178.395 233.569ZM179.412 234.297L179.859 233.662L179.446 233.075H179.705L179.892 233.362C179.927 233.416 179.956 233.462 179.977 233.499C180.011 233.448 180.042 233.403 180.07 233.364L180.276 233.075H180.524L180.101 233.65L180.556 234.297H180.302L180.051 233.917L179.984 233.815L179.663 234.297H179.412Z" fill="#E16B6C"/>
<path d="M201.048 232.92L201.101 232.757C201.223 232.8 201.311 232.837 201.366 232.868C201.352 232.729 201.344 232.634 201.343 232.582H201.51C201.508 232.658 201.499 232.753 201.484 232.867C201.563 232.827 201.653 232.79 201.755 232.757L201.808 232.92C201.711 232.952 201.615 232.974 201.522 232.984C201.568 233.025 201.634 233.098 201.72 233.202L201.581 233.3C201.537 233.239 201.484 233.157 201.424 233.052C201.367 233.16 201.317 233.243 201.274 233.3L201.139 233.202C201.228 233.092 201.291 233.02 201.33 232.984C201.231 232.965 201.137 232.944 201.048 232.92ZM202.047 234.765V233.075H202.236V233.234C202.28 233.172 202.331 233.126 202.387 233.095C202.443 233.063 202.511 233.048 202.59 233.048C202.695 233.048 202.787 233.075 202.866 233.128C202.946 233.182 203.006 233.258 203.047 233.356C203.088 233.453 203.108 233.56 203.108 233.677C203.108 233.802 203.085 233.915 203.04 234.015C202.996 234.115 202.93 234.191 202.845 234.245C202.759 234.298 202.67 234.325 202.575 234.325C202.506 234.325 202.444 234.31 202.389 234.281C202.335 234.252 202.29 234.215 202.254 234.17V234.765H202.047ZM202.235 233.693C202.235 233.85 202.267 233.966 202.33 234.042C202.394 234.117 202.471 234.154 202.562 234.154C202.654 234.154 202.732 234.116 202.797 234.038C202.863 233.96 202.896 233.839 202.896 233.676C202.896 233.52 202.864 233.404 202.8 233.326C202.736 233.249 202.66 233.21 202.571 233.21C202.483 233.21 202.404 233.251 202.336 233.334C202.269 233.416 202.235 233.536 202.235 233.693ZM205.104 233.305H203.99V233.112H205.104V233.305ZM205.104 233.817H203.99V233.624H205.104V233.817ZM206.07 234.297V232.611H206.299L207.185 233.935V232.611H207.399V234.297H207.17L206.284 232.972V234.297H206.07ZM208.881 232.611H209.104V233.585C209.104 233.754 209.085 233.889 209.047 233.989C209.009 234.088 208.939 234.17 208.839 234.232C208.739 234.295 208.608 234.326 208.445 234.326C208.287 234.326 208.158 234.298 208.058 234.244C207.957 234.19 207.885 234.111 207.843 234.008C207.8 233.905 207.778 233.764 207.778 233.585V232.611H208.001V233.584C208.001 233.73 208.015 233.838 208.042 233.908C208.069 233.977 208.116 234.03 208.182 234.068C208.249 234.106 208.33 234.124 208.426 234.124C208.59 234.124 208.707 234.087 208.777 234.013C208.846 233.938 208.881 233.795 208.881 233.584V232.611ZM209.468 234.297V232.611H209.691V234.098H210.522V234.297H209.468ZM210.779 234.297V232.611H211.002V234.098H211.833V234.297H210.779ZM212.127 233.311V233.075H212.363V233.311H212.127ZM212.127 234.297V234.061H212.363V234.297C212.363 234.384 212.348 234.453 212.317 234.506C212.287 234.56 212.238 234.601 212.171 234.63L212.114 234.542C212.157 234.523 212.189 234.494 212.21 234.457C212.231 234.42 212.242 234.367 212.245 234.297H212.127Z" fill="white"/>
<path d="M172.749 241.995L172.952 242.022C172.93 242.162 172.873 242.272 172.781 242.352C172.69 242.431 172.577 242.471 172.444 242.471C172.277 242.471 172.142 242.416 172.04 242.307C171.939 242.198 171.888 242.041 171.888 241.837C171.888 241.705 171.91 241.589 171.954 241.491C171.998 241.392 172.064 241.318 172.153 241.269C172.243 241.219 172.34 241.194 172.445 241.194C172.578 241.194 172.686 241.227 172.771 241.295C172.855 241.362 172.909 241.457 172.933 241.58L172.731 241.611C172.712 241.529 172.678 241.468 172.629 241.426C172.581 241.385 172.522 241.364 172.453 241.364C172.349 241.364 172.264 241.402 172.199 241.477C172.134 241.551 172.101 241.669 172.101 241.831C172.101 241.995 172.133 242.114 172.195 242.189C172.258 242.263 172.34 242.3 172.442 242.3C172.523 242.3 172.591 242.275 172.645 242.226C172.7 242.176 172.734 242.099 172.749 241.995ZM173.052 241.832C173.052 241.606 173.115 241.438 173.241 241.329C173.346 241.239 173.474 241.194 173.625 241.194C173.793 241.194 173.93 241.249 174.037 241.359C174.144 241.469 174.197 241.621 174.197 241.815C174.197 241.972 174.173 242.096 174.126 242.186C174.079 242.276 174.01 242.346 173.92 242.396C173.83 242.446 173.732 242.471 173.625 242.471C173.454 242.471 173.316 242.416 173.21 242.306C173.105 242.196 173.052 242.038 173.052 241.832ZM173.265 241.832C173.265 241.989 173.299 242.106 173.368 242.184C173.436 242.262 173.522 242.3 173.625 242.3C173.728 242.3 173.813 242.261 173.882 242.183C173.95 242.105 173.984 241.986 173.984 241.825C173.984 241.674 173.95 241.56 173.881 241.482C173.812 241.404 173.727 241.365 173.625 241.365C173.522 241.365 173.436 241.404 173.368 241.481C173.299 241.559 173.265 241.676 173.265 241.832ZM174.441 242.443V241.221H174.626V241.393C174.664 241.333 174.715 241.285 174.779 241.249C174.843 241.212 174.915 241.194 174.996 241.194C175.087 241.194 175.161 241.213 175.218 241.25C175.277 241.288 175.318 241.34 175.341 241.408C175.438 241.265 175.564 241.194 175.719 241.194C175.84 241.194 175.933 241.227 175.998 241.295C176.063 241.362 176.096 241.465 176.096 241.604V242.443H175.89V241.673C175.89 241.591 175.883 241.531 175.869 241.495C175.856 241.458 175.832 241.429 175.797 241.407C175.762 241.384 175.72 241.373 175.673 241.373C175.587 241.373 175.516 241.402 175.459 241.459C175.402 241.516 175.374 241.607 175.374 241.733V242.443H175.167V241.649C175.167 241.557 175.15 241.488 175.116 241.442C175.082 241.396 175.027 241.373 174.95 241.373C174.892 241.373 174.838 241.389 174.788 241.419C174.739 241.45 174.703 241.495 174.681 241.554C174.659 241.613 174.648 241.698 174.648 241.809V242.443H174.441ZM176.403 242.911V241.221H176.592V241.38C176.636 241.318 176.687 241.272 176.743 241.241C176.799 241.209 176.866 241.194 176.946 241.194C177.05 241.194 177.142 241.221 177.222 241.274C177.302 241.328 177.362 241.404 177.403 241.502C177.443 241.599 177.464 241.706 177.464 241.823C177.464 241.948 177.441 242.061 177.396 242.161C177.351 242.261 177.286 242.338 177.2 242.391C177.115 242.444 177.025 242.471 176.931 242.471C176.862 242.471 176.8 242.456 176.745 242.427C176.69 242.398 176.646 242.361 176.61 242.316V242.911H176.403ZM176.591 241.839C176.591 241.996 176.623 242.112 176.686 242.188C176.75 242.263 176.827 242.3 176.917 242.3C177.009 242.3 177.088 242.262 177.153 242.184C177.219 242.106 177.252 241.985 177.252 241.822C177.252 241.666 177.22 241.55 177.155 241.472C177.092 241.395 177.016 241.356 176.927 241.356C176.838 241.356 176.76 241.397 176.692 241.48C176.624 241.562 176.591 241.682 176.591 241.839ZM177.71 242.443V240.757H177.917V242.443H177.71ZM179.075 242.05L179.289 242.076C179.256 242.201 179.193 242.298 179.102 242.367C179.011 242.436 178.894 242.471 178.752 242.471C178.573 242.471 178.432 242.416 178.326 242.306C178.222 242.196 178.17 242.041 178.17 241.843C178.17 241.637 178.223 241.477 178.329 241.364C178.435 241.25 178.572 241.194 178.741 241.194C178.904 241.194 179.037 241.249 179.141 241.361C179.244 241.472 179.296 241.628 179.296 241.83C179.296 241.842 179.296 241.861 179.295 241.885H178.384C178.392 242.019 178.43 242.122 178.498 242.193C178.566 242.265 178.651 242.3 178.753 242.3C178.829 242.3 178.894 242.28 178.948 242.241C179.001 242.201 179.044 242.137 179.075 242.05ZM178.395 241.715H179.078C179.068 241.612 179.042 241.535 178.999 241.484C178.933 241.404 178.848 241.364 178.743 241.364C178.648 241.364 178.568 241.396 178.502 241.459C178.438 241.523 178.402 241.608 178.395 241.715ZM179.412 242.443L179.859 241.808L179.446 241.221H179.705L179.892 241.508C179.927 241.562 179.956 241.608 179.977 241.645C180.011 241.594 180.042 241.549 180.07 241.51L180.276 241.221H180.524L180.101 241.796L180.556 242.443H180.302L180.051 242.063L179.984 241.961L179.663 242.443H179.412ZM182.181 242.292C182.104 242.357 182.03 242.403 181.959 242.43C181.889 242.457 181.813 242.471 181.731 242.471C181.597 242.471 181.494 242.438 181.422 242.373C181.35 242.307 181.314 242.223 181.314 242.121C181.314 242.061 181.327 242.007 181.354 241.958C181.382 241.908 181.417 241.868 181.461 241.838C181.506 241.808 181.555 241.785 181.611 241.77C181.651 241.759 181.713 241.749 181.795 241.739C181.962 241.719 182.085 241.695 182.164 241.668C182.165 241.639 182.165 241.621 182.165 241.614C182.165 241.529 182.145 241.47 182.106 241.435C182.053 241.389 181.975 241.365 181.871 241.365C181.773 241.365 181.701 241.382 181.654 241.417C181.608 241.451 181.574 241.511 181.552 241.597L181.349 241.57C181.368 241.483 181.398 241.413 181.44 241.361C181.482 241.307 181.543 241.266 181.623 241.237C181.703 241.208 181.795 241.194 181.9 241.194C182.005 241.194 182.089 241.206 182.155 241.231C182.22 241.255 182.268 241.286 182.298 241.324C182.329 241.361 182.351 241.407 182.363 241.464C182.37 241.499 182.373 241.563 182.373 241.655V241.931C182.373 242.124 182.377 242.245 182.386 242.297C182.395 242.347 182.413 242.396 182.439 242.443H182.223C182.201 242.4 182.187 242.35 182.181 242.292ZM182.164 241.83C182.089 241.861 181.976 241.887 181.826 241.908C181.741 241.92 181.68 241.934 181.645 241.949C181.61 241.965 181.583 241.987 181.563 242.017C181.544 242.046 181.535 242.079 181.535 242.115C181.535 242.17 181.555 242.216 181.597 242.253C181.639 242.29 181.7 242.308 181.781 242.308C181.861 242.308 181.931 242.291 181.994 242.257C182.056 242.221 182.101 242.173 182.13 242.113C182.153 242.066 182.164 241.997 182.164 241.906V241.83ZM182.886 242.443H182.694V240.757H182.901V241.358C182.989 241.249 183.1 241.194 183.236 241.194C183.311 241.194 183.382 241.209 183.449 241.24C183.516 241.27 183.571 241.312 183.614 241.367C183.658 241.422 183.692 241.488 183.717 241.565C183.741 241.643 183.754 241.726 183.754 241.814C183.754 242.023 183.702 242.185 183.598 242.299C183.495 242.413 183.371 242.471 183.226 242.471C183.081 242.471 182.968 242.41 182.886 242.29V242.443ZM182.884 241.823C182.884 241.969 182.904 242.075 182.944 242.14C183.009 242.247 183.097 242.3 183.208 242.3C183.299 242.3 183.377 242.261 183.443 242.183C183.509 242.104 183.542 241.987 183.542 241.831C183.542 241.671 183.51 241.554 183.446 241.478C183.384 241.402 183.307 241.364 183.218 241.364C183.127 241.364 183.049 241.403 182.983 241.482C182.917 241.561 182.884 241.674 182.884 241.823ZM183.924 242.078L184.129 242.046C184.14 242.128 184.172 242.191 184.224 242.235C184.277 242.278 184.351 242.3 184.445 242.3C184.54 242.3 184.611 242.281 184.657 242.243C184.703 242.204 184.726 242.158 184.726 242.106C184.726 242.059 184.705 242.022 184.665 241.995C184.636 241.977 184.566 241.954 184.453 241.925C184.301 241.887 184.196 241.854 184.137 241.826C184.078 241.798 184.034 241.759 184.003 241.71C183.973 241.66 183.958 241.606 183.958 241.546C183.958 241.491 183.971 241.441 183.995 241.395C184.02 241.348 184.055 241.31 184.097 241.279C184.13 241.255 184.173 241.235 184.229 241.219C184.285 241.202 184.344 241.194 184.408 241.194C184.504 241.194 184.588 241.208 184.66 241.235C184.733 241.263 184.787 241.3 184.821 241.348C184.856 241.395 184.879 241.458 184.892 241.537L184.69 241.564C184.681 241.501 184.654 241.452 184.609 241.417C184.566 241.382 184.504 241.364 184.423 241.364C184.328 241.364 184.26 241.38 184.219 241.411C184.179 241.443 184.158 241.479 184.158 241.522C184.158 241.548 184.167 241.573 184.184 241.594C184.201 241.616 184.227 241.635 184.263 241.649C184.284 241.657 184.345 241.675 184.446 241.702C184.593 241.741 184.694 241.773 184.752 241.799C184.81 241.823 184.856 241.859 184.889 241.907C184.922 241.954 184.938 242.014 184.938 242.084C184.938 242.153 184.918 242.218 184.877 242.28C184.838 242.34 184.78 242.387 184.704 242.421C184.628 242.454 184.542 242.471 184.446 242.471C184.287 242.471 184.166 242.438 184.083 242.372C184 242.306 183.947 242.208 183.924 242.078ZM184.994 242.911V242.762H186.366V242.911H184.994ZM186.496 242.911V241.221H186.685V241.38C186.729 241.318 186.779 241.272 186.835 241.241C186.891 241.209 186.959 241.194 187.039 241.194C187.143 241.194 187.235 241.221 187.315 241.274C187.395 241.328 187.455 241.404 187.495 241.502C187.536 241.599 187.556 241.706 187.556 241.823C187.556 241.948 187.534 242.061 187.489 242.161C187.444 242.261 187.379 242.338 187.293 242.391C187.208 242.444 187.118 242.471 187.024 242.471C186.955 242.471 186.893 242.456 186.837 242.427C186.783 242.398 186.738 242.361 186.703 242.316V242.911H186.496ZM186.683 241.839C186.683 241.996 186.715 242.112 186.779 242.188C186.842 242.263 186.92 242.3 187.01 242.3C187.102 242.3 187.181 242.262 187.246 242.184C187.312 242.106 187.345 241.985 187.345 241.822C187.345 241.666 187.313 241.55 187.248 241.472C187.185 241.395 187.108 241.356 187.019 241.356C186.931 241.356 186.853 241.397 186.785 241.48C186.717 241.562 186.683 241.682 186.683 241.839ZM189.552 241.451H188.439V241.258H189.552V241.451ZM189.552 241.963H188.439V241.77H189.552V241.963ZM190.411 242.078L190.616 242.046C190.628 242.128 190.66 242.191 190.712 242.235C190.765 242.278 190.838 242.3 190.933 242.3C191.028 242.3 191.098 242.281 191.144 242.243C191.19 242.204 191.213 242.158 191.213 242.106C191.213 242.059 191.193 242.022 191.152 241.995C191.124 241.977 191.053 241.954 190.941 241.925C190.789 241.887 190.683 241.854 190.624 241.826C190.566 241.798 190.521 241.759 190.491 241.71C190.461 241.66 190.446 241.606 190.446 241.546C190.446 241.491 190.458 241.441 190.483 241.395C190.508 241.348 190.542 241.31 190.585 241.279C190.617 241.255 190.661 241.235 190.716 241.219C190.772 241.202 190.832 241.194 190.896 241.194C190.992 241.194 191.076 241.208 191.148 241.235C191.22 241.263 191.274 241.3 191.309 241.348C191.343 241.395 191.367 241.458 191.38 241.537L191.178 241.564C191.168 241.501 191.142 241.452 191.097 241.417C191.053 241.382 190.991 241.364 190.911 241.364C190.816 241.364 190.748 241.38 190.707 241.411C190.666 241.443 190.646 241.479 190.646 241.522C190.646 241.548 190.655 241.573 190.671 241.594C190.688 241.616 190.715 241.635 190.751 241.649C190.771 241.657 190.832 241.675 190.934 241.702C191.08 241.741 191.182 241.773 191.24 241.799C191.298 241.823 191.344 241.859 191.377 241.907C191.41 241.954 191.426 242.014 191.426 242.084C191.426 242.153 191.406 242.218 191.365 242.28C191.325 242.34 191.267 242.387 191.191 242.421C191.115 242.454 191.03 242.471 190.934 242.471C190.775 242.471 190.654 242.438 190.57 242.372C190.487 242.306 190.434 242.208 190.411 242.078ZM192.451 242.911V242.313C192.419 242.358 192.373 242.396 192.315 242.426C192.258 242.456 192.196 242.471 192.131 242.471C191.986 242.471 191.861 242.413 191.756 242.297C191.652 242.181 191.6 242.022 191.6 241.821C191.6 241.698 191.621 241.588 191.663 241.491C191.706 241.393 191.768 241.32 191.848 241.27C191.929 241.219 192.018 241.194 192.115 241.194C192.266 241.194 192.385 241.257 192.472 241.385V241.221H192.658V242.911H192.451ZM191.813 241.829C191.813 241.986 191.845 242.104 191.911 242.183C191.977 242.261 192.056 242.3 192.148 242.3C192.237 242.3 192.313 242.263 192.376 242.189C192.44 242.114 192.472 242 192.472 241.847C192.472 241.685 192.438 241.562 192.37 241.48C192.304 241.398 192.225 241.357 192.135 241.357C192.045 241.357 191.969 241.395 191.906 241.472C191.844 241.548 191.813 241.667 191.813 241.829ZM192.981 242.443V241.221H193.168V241.407C193.215 241.32 193.259 241.263 193.299 241.235C193.339 241.208 193.384 241.194 193.432 241.194C193.502 241.194 193.573 241.216 193.645 241.26L193.574 241.453C193.523 241.423 193.472 241.408 193.422 241.408C193.377 241.408 193.336 241.422 193.3 241.449C193.264 241.476 193.238 241.514 193.223 241.562C193.2 241.635 193.188 241.716 193.188 241.803V242.443H192.981ZM194.22 242.258L194.25 242.441C194.192 242.453 194.14 242.459 194.094 242.459C194.018 242.459 193.96 242.447 193.919 242.423C193.877 242.4 193.848 242.369 193.831 242.33C193.814 242.291 193.806 242.209 193.806 242.085V241.382H193.654V241.221H193.806V240.919L194.012 240.795V241.221H194.22V241.382H194.012V242.097C194.012 242.156 194.015 242.194 194.022 242.211C194.03 242.227 194.042 242.241 194.058 242.251C194.075 242.261 194.099 242.266 194.129 242.266C194.152 242.266 194.182 242.263 194.22 242.258Z" fill="white"/>
<path d="M353.162 241.457V241.221H353.398V241.457H353.162ZM353.162 242.443V242.207H353.398V242.443C353.398 242.53 353.382 242.599 353.352 242.652C353.321 242.706 353.272 242.747 353.206 242.777L353.148 242.688C353.192 242.669 353.224 242.64 353.245 242.603C353.265 242.566 353.277 242.513 353.279 242.443H353.162Z" fill="white"/>
<path d="M242.514 242.939C242.399 242.795 242.303 242.626 242.224 242.433C242.145 242.239 242.105 242.039 242.105 241.832C242.105 241.65 242.135 241.475 242.194 241.308C242.263 241.114 242.369 240.92 242.514 240.728H242.662C242.569 240.887 242.508 241.001 242.478 241.07C242.431 241.175 242.394 241.286 242.368 241.401C242.335 241.544 242.318 241.688 242.318 241.833C242.318 242.202 242.433 242.571 242.662 242.939H242.514ZM242.902 242.911V241.221H243.091V241.38C243.136 241.318 243.186 241.272 243.242 241.241C243.298 241.209 243.366 241.194 243.445 241.194C243.55 241.194 243.642 241.221 243.721 241.274C243.801 241.328 243.861 241.404 243.902 241.502C243.943 241.599 243.963 241.706 243.963 241.823C243.963 241.948 243.94 242.061 243.895 242.161C243.851 242.261 243.785 242.338 243.7 242.391C243.614 242.444 243.525 242.471 243.43 242.471C243.361 242.471 243.299 242.456 243.244 242.427C243.19 242.398 243.145 242.361 243.109 242.316V242.911H242.902ZM243.09 241.839C243.09 241.996 243.122 242.112 243.185 242.188C243.249 242.263 243.326 242.3 243.417 242.3C243.509 242.3 243.587 242.262 243.652 242.184C243.718 242.106 243.751 241.985 243.751 241.822C243.751 241.666 243.719 241.55 243.655 241.472C243.591 241.395 243.515 241.356 243.426 241.356C243.338 241.356 243.259 241.397 243.191 241.48C243.124 241.562 243.09 241.682 243.09 241.839ZM244.133 241.937V241.729H244.769V241.937H244.133ZM246.089 241.706L244.972 242.183V241.977L245.856 241.61L244.972 241.247V241.041L246.089 241.512V241.706ZM246.372 242.443V241.221H246.558V241.407C246.606 241.32 246.649 241.263 246.689 241.235C246.73 241.208 246.774 241.194 246.823 241.194C246.892 241.194 246.963 241.216 247.035 241.26L246.964 241.453C246.914 241.423 246.863 241.408 246.812 241.408C246.767 241.408 246.726 241.422 246.69 241.449C246.654 241.476 246.629 241.514 246.613 241.562C246.59 241.635 246.579 241.716 246.579 241.803V242.443H246.372ZM247.995 242.05L248.209 242.076C248.175 242.201 248.112 242.298 248.021 242.367C247.93 242.436 247.813 242.471 247.672 242.471C247.493 242.471 247.351 242.416 247.246 242.306C247.142 242.196 247.089 242.041 247.089 241.843C247.089 241.637 247.142 241.477 247.248 241.364C247.354 241.25 247.491 241.194 247.66 241.194C247.823 241.194 247.957 241.249 248.06 241.361C248.164 241.472 248.216 241.628 248.216 241.83C248.216 241.842 248.215 241.861 248.214 241.885H247.303C247.311 242.019 247.349 242.122 247.417 242.193C247.486 242.265 247.571 242.3 247.673 242.3C247.749 242.3 247.813 242.28 247.867 242.241C247.921 242.201 247.963 242.137 247.995 242.05ZM247.315 241.715H247.997C247.988 241.612 247.962 241.535 247.919 241.484C247.853 241.404 247.767 241.364 247.662 241.364C247.567 241.364 247.487 241.396 247.422 241.459C247.358 241.523 247.322 241.608 247.315 241.715ZM249.267 242.292C249.19 242.357 249.116 242.403 249.045 242.43C248.974 242.457 248.899 242.471 248.817 242.471C248.683 242.471 248.58 242.438 248.508 242.373C248.436 242.307 248.4 242.223 248.4 242.121C248.4 242.061 248.413 242.007 248.44 241.958C248.468 241.908 248.503 241.868 248.547 241.838C248.591 241.808 248.641 241.785 248.696 241.77C248.737 241.759 248.798 241.749 248.881 241.739C249.048 241.719 249.171 241.695 249.25 241.668C249.251 241.639 249.251 241.621 249.251 241.614C249.251 241.529 249.231 241.47 249.192 241.435C249.139 241.389 249.061 241.365 248.956 241.365C248.859 241.365 248.787 241.382 248.74 241.417C248.694 241.451 248.66 241.511 248.638 241.597L248.435 241.57C248.454 241.483 248.484 241.413 248.526 241.361C248.568 241.307 248.629 241.266 248.709 241.237C248.789 241.208 248.881 241.194 248.986 241.194C249.091 241.194 249.175 241.206 249.241 241.231C249.306 241.255 249.354 241.286 249.384 241.324C249.415 241.361 249.436 241.407 249.449 241.464C249.456 241.499 249.459 241.563 249.459 241.655V241.931C249.459 242.124 249.463 242.245 249.472 242.297C249.481 242.347 249.499 242.396 249.525 242.443H249.308C249.287 242.4 249.273 242.35 249.267 242.292ZM249.25 241.83C249.175 241.861 249.062 241.887 248.912 241.908C248.826 241.92 248.766 241.934 248.731 241.949C248.696 241.965 248.668 241.987 248.649 242.017C248.63 242.046 248.621 242.079 248.621 242.115C248.621 242.17 248.641 242.216 248.683 242.253C248.725 242.29 248.786 242.308 248.867 242.308C248.946 242.308 249.017 242.291 249.08 242.257C249.142 242.221 249.187 242.173 249.216 242.113C249.239 242.066 249.25 241.997 249.25 241.906V241.83ZM249.777 242.443V240.757H249.984V242.443H249.777ZM250.88 241.066L250.933 240.903C251.055 240.946 251.143 240.983 251.198 241.014C251.184 240.875 251.176 240.78 251.175 240.728H251.342C251.34 240.804 251.331 240.899 251.316 241.013C251.395 240.973 251.485 240.936 251.587 240.903L251.64 241.066C251.543 241.098 251.447 241.12 251.354 241.13C251.4 241.171 251.466 241.244 251.551 241.348L251.413 241.446C251.369 241.385 251.316 241.303 251.256 241.198C251.199 241.306 251.149 241.389 251.106 241.446L250.971 241.348C251.06 241.238 251.123 241.166 251.162 241.13C251.063 241.111 250.969 241.09 250.88 241.066ZM252.535 242.911V241.221H252.724V241.38C252.768 241.318 252.818 241.272 252.874 241.241C252.93 241.209 252.998 241.194 253.078 241.194C253.182 241.194 253.274 241.221 253.354 241.274C253.434 241.328 253.494 241.404 253.535 241.502C253.575 241.599 253.596 241.706 253.596 241.823C253.596 241.948 253.573 242.061 253.528 242.161C253.483 242.261 253.418 242.338 253.332 242.391C253.247 242.444 253.157 242.471 253.063 242.471C252.994 242.471 252.932 242.456 252.877 242.427C252.822 242.398 252.777 242.361 252.742 242.316V242.911H252.535ZM252.722 241.839C252.722 241.996 252.754 242.112 252.818 242.188C252.882 242.263 252.959 242.3 253.049 242.3C253.141 242.3 253.22 242.262 253.285 242.184C253.351 242.106 253.384 241.985 253.384 241.822C253.384 241.666 253.352 241.55 253.287 241.472C253.224 241.395 253.147 241.356 253.058 241.356C252.97 241.356 252.892 241.397 252.824 241.48C252.756 241.562 252.722 241.682 252.722 241.839ZM253.766 241.937V241.729H254.402V241.937H253.766ZM255.721 241.706L254.604 242.183V241.977L255.489 241.61L254.604 241.247V241.041L255.721 241.512V241.706ZM256.004 242.443V241.221H256.191V241.407C256.238 241.32 256.282 241.263 256.322 241.235C256.362 241.208 256.407 241.194 256.455 241.194C256.525 241.194 256.596 241.216 256.668 241.26L256.597 241.453C256.546 241.423 256.495 241.408 256.445 241.408C256.4 241.408 256.359 241.422 256.323 241.449C256.287 241.476 256.261 241.514 256.246 241.562C256.223 241.635 256.211 241.716 256.211 241.803V242.443H256.004ZM257.627 242.05L257.841 242.076C257.808 242.201 257.745 242.298 257.654 242.367C257.563 242.436 257.446 242.471 257.304 242.471C257.125 242.471 256.984 242.416 256.878 242.306C256.774 242.196 256.722 242.041 256.722 241.843C256.722 241.637 256.775 241.477 256.881 241.364C256.987 241.25 257.124 241.194 257.293 241.194C257.456 241.194 257.589 241.249 257.693 241.361C257.796 241.472 257.848 241.628 257.848 241.83C257.848 241.842 257.848 241.861 257.847 241.885H256.936C256.944 242.019 256.982 242.122 257.05 242.193C257.118 242.265 257.203 242.3 257.305 242.3C257.381 242.3 257.446 242.28 257.5 242.241C257.553 242.201 257.596 242.137 257.627 242.05ZM256.948 241.715H257.63C257.62 241.612 257.594 241.535 257.551 241.484C257.485 241.404 257.4 241.364 257.295 241.364C257.2 241.364 257.12 241.396 257.054 241.459C256.99 241.523 256.954 241.608 256.948 241.715ZM258.9 242.292C258.823 242.357 258.749 242.403 258.678 242.43C258.607 242.457 258.531 242.471 258.45 242.471C258.316 242.471 258.212 242.438 258.14 242.373C258.068 242.307 258.032 242.223 258.032 242.121C258.032 242.061 258.046 242.007 258.072 241.958C258.1 241.908 258.136 241.868 258.179 241.838C258.224 241.808 258.274 241.785 258.329 241.77C258.37 241.759 258.431 241.749 258.513 241.739C258.68 241.719 258.803 241.695 258.882 241.668C258.883 241.639 258.883 241.621 258.883 241.614C258.883 241.529 258.864 241.47 258.825 241.435C258.772 241.389 258.693 241.365 258.589 241.365C258.492 241.365 258.419 241.382 258.373 241.417C258.327 241.451 258.293 241.511 258.27 241.597L258.068 241.57C258.086 241.483 258.117 241.413 258.159 241.361C258.201 241.307 258.262 241.266 258.342 241.237C258.421 241.208 258.514 241.194 258.619 241.194C258.723 241.194 258.808 241.206 258.873 241.231C258.938 241.255 258.986 241.286 259.017 241.324C259.048 241.361 259.069 241.407 259.081 241.464C259.088 241.499 259.092 241.563 259.092 241.655V241.931C259.092 242.124 259.096 242.245 259.104 242.297C259.114 242.347 259.131 242.396 259.157 242.443H258.941C258.919 242.4 258.906 242.35 258.9 242.292ZM258.882 241.83C258.807 241.861 258.694 241.887 258.544 241.908C258.459 241.92 258.399 241.934 258.364 241.949C258.328 241.965 258.301 241.987 258.282 242.017C258.263 242.046 258.253 242.079 258.253 242.115C258.253 242.17 258.274 242.216 258.315 242.253C258.357 242.29 258.419 242.308 258.499 242.308C258.579 242.308 258.65 242.291 258.712 242.257C258.774 242.221 258.82 242.173 258.849 242.113C258.871 242.066 258.882 241.997 258.882 241.906V241.83ZM259.409 242.443V240.757H259.616V242.443H259.409ZM261.029 242.17V241.708H260.57V241.515H261.029V241.056H261.224V241.515H261.683V241.708H261.224V242.17H261.029ZM262.625 242.911V241.221H262.814V241.38C262.858 241.318 262.909 241.272 262.965 241.241C263.021 241.209 263.089 241.194 263.168 241.194C263.273 241.194 263.365 241.221 263.444 241.274C263.524 241.328 263.584 241.404 263.625 241.502C263.666 241.599 263.686 241.706 263.686 241.823C263.686 241.948 263.663 242.061 263.618 242.161C263.574 242.261 263.508 242.338 263.423 242.391C263.337 242.444 263.248 242.471 263.153 242.471C263.084 242.471 263.022 242.456 262.967 242.427C262.913 242.398 262.868 242.361 262.832 242.316V242.911H262.625ZM262.813 241.839C262.813 241.996 262.845 242.112 262.908 242.188C262.972 242.263 263.049 242.3 263.14 242.3C263.232 242.3 263.31 242.262 263.375 242.184C263.441 242.106 263.474 241.985 263.474 241.822C263.474 241.666 263.442 241.55 263.378 241.472C263.314 241.395 263.238 241.356 263.149 241.356C263.061 241.356 262.982 241.397 262.914 241.48C262.847 241.562 262.813 241.682 262.813 241.839ZM263.856 241.937V241.729H264.492V241.937H263.856ZM265.812 241.706L264.695 242.183V241.977L265.579 241.61L264.695 241.247V241.041L265.812 241.512V241.706ZM266.098 240.995V240.757H266.305V240.995H266.098ZM266.098 242.443V241.221H266.305V242.443H266.098ZM266.621 242.443V241.221H266.807V241.393C266.845 241.333 266.896 241.285 266.96 241.249C267.023 241.212 267.096 241.194 267.177 241.194C267.268 241.194 267.342 241.213 267.399 241.25C267.457 241.288 267.498 241.34 267.522 241.408C267.619 241.265 267.745 241.194 267.899 241.194C268.021 241.194 268.114 241.227 268.179 241.295C268.244 241.362 268.277 241.465 268.277 241.604V242.443H268.071V241.673C268.071 241.591 268.064 241.531 268.05 241.495C268.037 241.458 268.013 241.429 267.978 241.407C267.942 241.384 267.901 241.373 267.853 241.373C267.768 241.373 267.696 241.402 267.639 241.459C267.583 241.516 267.554 241.607 267.554 241.733V242.443H267.347V241.649C267.347 241.557 267.33 241.488 267.297 241.442C267.263 241.396 267.208 241.373 267.131 241.373C267.073 241.373 267.019 241.389 266.969 241.419C266.92 241.45 266.884 241.495 266.862 241.554C266.84 241.613 266.829 241.698 266.829 241.809V242.443H266.621ZM269.158 241.066L269.211 240.903C269.333 240.946 269.421 240.983 269.476 241.014C269.462 240.875 269.454 240.78 269.453 240.728H269.62C269.618 240.804 269.609 240.899 269.594 241.013C269.673 240.973 269.763 240.936 269.865 240.903L269.918 241.066C269.821 241.098 269.725 241.12 269.632 241.13C269.679 241.171 269.745 241.244 269.83 241.348L269.692 241.446C269.647 241.385 269.595 241.303 269.534 241.198C269.477 241.306 269.427 241.389 269.384 241.446L269.249 241.348C269.338 241.238 269.401 241.166 269.44 241.13C269.341 241.111 269.247 241.09 269.158 241.066ZM270.813 242.911V241.221H271.002V241.38C271.046 241.318 271.096 241.272 271.152 241.241C271.208 241.209 271.276 241.194 271.356 241.194C271.46 241.194 271.552 241.221 271.632 241.274C271.712 241.328 271.772 241.404 271.813 241.502C271.853 241.599 271.874 241.706 271.874 241.823C271.874 241.948 271.851 242.061 271.806 242.161C271.761 242.261 271.696 242.338 271.61 242.391C271.525 242.444 271.435 242.471 271.341 242.471C271.272 242.471 271.21 242.456 271.155 242.427C271.1 242.398 271.055 242.361 271.02 242.316V242.911H270.813ZM271.001 241.839C271.001 241.996 271.032 242.112 271.096 242.188C271.16 242.263 271.237 242.3 271.327 242.3C271.419 242.3 271.498 242.262 271.563 242.184C271.629 242.106 271.662 241.985 271.662 241.822C271.662 241.666 271.63 241.55 271.565 241.472C271.502 241.395 271.425 241.356 271.337 241.356C271.248 241.356 271.17 241.397 271.102 241.48C271.034 241.562 271.001 241.682 271.001 241.839ZM272.044 241.937V241.729H272.68V241.937H272.044ZM273.999 241.706L272.883 242.183V241.977L273.767 241.61L272.883 241.247V241.041L273.999 241.512V241.706ZM274.286 240.995V240.757H274.493V240.995H274.286ZM274.286 242.443V241.221H274.493V242.443H274.286ZM274.809 242.443V241.221H274.994V241.393C275.033 241.333 275.084 241.285 275.147 241.249C275.211 241.212 275.284 241.194 275.365 241.194C275.455 241.194 275.529 241.213 275.587 241.25C275.645 241.288 275.686 241.34 275.71 241.408C275.807 241.265 275.932 241.194 276.087 241.194C276.208 241.194 276.302 241.227 276.367 241.295C276.432 241.362 276.465 241.465 276.465 241.604V242.443H276.259V241.673C276.259 241.591 276.252 241.531 276.238 241.495C276.225 241.458 276.201 241.429 276.165 241.407C276.13 241.384 276.089 241.373 276.041 241.373C275.955 241.373 275.884 241.402 275.827 241.459C275.771 241.516 275.742 241.607 275.742 241.733V242.443H275.535V241.649C275.535 241.557 275.518 241.488 275.484 241.442C275.451 241.396 275.396 241.373 275.319 241.373C275.261 241.373 275.206 241.389 275.157 241.419C275.108 241.45 275.072 241.495 275.05 241.554C275.027 241.613 275.016 241.698 275.016 241.809V242.443H274.809ZM276.907 242.939H276.759C276.988 242.571 277.103 242.202 277.103 241.833C277.103 241.689 277.086 241.546 277.053 241.404C277.027 241.289 276.991 241.179 276.944 241.073C276.914 241.004 276.853 240.889 276.759 240.728H276.907C277.052 240.92 277.158 241.114 277.227 241.308C277.286 241.475 277.316 241.65 277.316 241.832C277.316 242.039 277.276 242.239 277.196 242.433C277.117 242.626 277.021 242.795 276.907 242.939Z" fill="#F1C559"/>
<path d="M433.147 216.604V229.357H159.708V216.604C159.708 214.019 161.808 211.92 164.393 211.92H428.47C431.055 211.92 433.147 214.019 433.147 216.604Z" fill="#6E89D8"/>
<path d="M394.225 221.188C394.225 223.103 392.672 224.656 390.757 224.656C388.842 224.656 387.29 223.103 387.29 221.188C387.29 219.273 388.842 217.72 390.757 217.72C392.672 217.72 394.225 219.273 394.225 221.188Z" fill="#E26B6D"/>
<path d="M406.414 221.188C406.414 223.103 404.862 224.656 402.947 224.656C401.032 224.656 399.479 223.103 399.479 221.188C399.479 219.273 401.032 217.72 402.947 217.72C404.862 217.72 406.414 219.273 406.414 221.188Z" fill="#F0C459"/>
<path d="M418.604 221.188C418.604 223.103 417.051 224.656 415.136 224.656C413.221 224.656 411.668 223.103 411.668 221.188C411.668 219.273 413.221 217.72 415.136 217.72C417.051 217.72 418.604 219.273 418.604 221.188Z" fill="#C3CC8E"/>
<path d="M167.646 247.765H166.159V236.087H167.646V247.765Z" fill="white"/>
<path d="M490.291 258.92V404.915C490.291 407.252 488.4 409.15 486.063 409.15H247.294C244.957 409.15 243.059 407.252 243.059 404.915V258.92C243.059 256.582 244.957 254.684 247.294 254.684H486.063C488.4 254.684 490.291 256.582 490.291 258.92Z" fill="#3A4162"/>
<path d="M490.291 258.92V270.45H243.059V258.92C243.059 256.582 244.957 254.684 247.294 254.684H486.063C488.4 254.684 490.291 256.582 490.291 258.92Z" fill="#4D8593"/>
<path d="M455.1 263.064C455.1 264.796 453.696 266.2 451.965 266.2C450.233 266.2 448.829 264.796 448.829 263.064C448.829 261.333 450.233 259.929 451.965 259.929C453.696 259.929 455.1 261.333 455.1 263.064Z" fill="#E26B6D"/>
<path d="M466.121 263.064C466.121 264.796 464.717 266.2 462.985 266.2C461.254 266.2 459.85 264.796 459.85 263.064C459.85 261.333 461.254 259.929 462.985 259.929C464.717 259.929 466.121 261.333 466.121 263.064Z" fill="#F0C459"/>
<path d="M477.142 263.064C477.142 264.796 475.738 266.2 474.007 266.2C472.275 266.2 470.871 264.796 470.871 263.064C470.871 261.333 472.275 259.929 474.007 259.929C475.738 259.929 477.142 261.333 477.142 263.064Z" fill="#C3CC8E"/>
<path d="M250.236 287.094H248.892V276.535H250.236V287.094Z" fill="white"/>
<path d="M503.365 592.225C503.365 597.874 421.315 602.453 320.101 602.453C218.887 602.453 136.837 597.874 136.837 592.225C136.837 586.576 218.887 581.997 320.101 581.997C421.315 581.997 503.365 586.576 503.365 592.225Z" fill="#F2F2F2"/>
<path d="M309.59 313.484H285.727C280.399 313.484 275.882 317.404 275.133 322.679L254.071 470.93C253.156 477.374 258.157 483.136 264.666 483.136H330.652C337.16 483.136 342.162 477.374 341.246 470.93L320.185 322.679C319.435 317.404 314.919 313.484 309.59 313.484Z" fill="#E26B6D"/>
<path d="M275.714 580.885C275.714 585.196 272.219 588.69 267.908 588.69C263.598 588.69 260.103 585.196 260.103 580.885C260.103 576.574 263.598 573.079 267.908 573.079C272.219 573.079 275.714 576.574 275.714 580.885Z" fill="#003333"/>
<path d="M310.695 580.885C310.695 585.196 307.2 588.69 302.889 588.69C298.578 588.69 295.083 585.196 295.083 580.885C295.083 576.574 298.578 573.079 302.889 573.079C307.2 573.079 310.695 576.574 310.695 580.885Z" fill="#003333"/>
<path d="M342.496 580.885C342.496 585.196 339.001 588.69 334.69 588.69C330.379 588.69 326.884 585.196 326.884 580.885C326.884 576.574 330.379 573.079 334.69 573.079C339.001 573.079 342.496 576.574 342.496 580.885Z" fill="#003333"/>
<path d="M302.311 580.595C300.501 580.595 299.034 579.129 299.034 577.319V499.359H305.587V577.319C305.587 579.129 304.12 580.595 302.311 580.595Z" fill="#D8E4E9"/>
<path d="M310.41 510.248H294.12V490.364H310.41V510.248Z" fill="#C4D6DF"/>
<path d="M331.508 498.106H274.845C268.991 498.106 264.245 493.36 264.245 487.506C264.245 481.652 268.991 476.906 274.845 476.906H331.508C337.362 476.906 342.108 481.652 342.108 487.506C342.108 493.36 337.362 498.106 331.508 498.106Z" fill="#DD4D4F"/>
<path d="M327.083 555.155H275.978C270.084 555.155 265.306 559.933 265.306 565.826V579.005C265.306 580.682 266.666 582.041 268.342 582.041C270.018 582.041 271.377 580.682 271.377 579.005V567.182C271.377 563.893 274.044 561.226 277.333 561.226H325.554C328.843 561.226 331.51 563.893 331.51 567.182V579.005C331.51 580.682 332.869 582.041 334.545 582.041H334.578C336.242 582.041 337.595 580.702 337.613 579.038L337.754 565.941C337.818 560.003 333.022 555.155 327.083 555.155Z" fill="#D8E4E9"/>
<path d="M313.412 328.722H282.39C282.039 328.722 282.038 329.268 282.39 329.268H313.412C313.763 329.268 313.764 328.722 313.412 328.722Z" fill="#1A2349"/>
<path d="M316.318 343.093C303.716 343.31 291.114 343.528 278.512 343.746C278.161 343.751 278.16 344.297 278.512 344.292C291.114 344.074 303.716 343.856 316.318 343.639C316.669 343.633 316.67 343.087 316.318 343.093Z" fill="#1A2349"/>
<path d="M316.318 460.88C303.716 461.098 291.114 461.315 278.512 461.532C278.161 461.539 278.16 462.085 278.512 462.078C291.114 461.861 303.716 461.643 316.318 461.426C316.669 461.42 316.67 460.874 316.318 460.88Z" fill="#1A2349"/>
<path d="M320.363 359.573C305.064 359.791 289.766 360.009 274.467 360.226C274.041 360.232 274.039 360.778 274.467 360.772C289.766 360.555 305.064 360.337 320.363 360.119C320.789 360.113 320.791 359.567 320.363 359.573Z" fill="#1A2349"/>
<path d="M323.709 377.993C306.18 378.21 288.65 378.428 271.12 378.645C270.632 378.651 270.631 379.198 271.12 379.191C288.65 378.974 306.18 378.756 323.709 378.539C324.197 378.533 324.199 377.987 323.709 377.993Z" fill="#1A2349"/>
<path d="M323.709 395.927C306.18 396.145 288.65 396.362 271.12 396.58C270.632 396.586 270.631 397.132 271.12 397.126C288.65 396.908 306.18 396.691 323.709 396.473C324.197 396.467 324.199 395.921 323.709 395.927Z" fill="#1A2349"/>
<path d="M323.709 413.862C306.18 414.08 288.65 414.297 271.12 414.514C270.632 414.521 270.631 415.067 271.12 415.06C288.65 414.843 306.18 414.625 323.709 414.408C324.197 414.402 324.199 413.856 323.709 413.862Z" fill="#1A2349"/>
<path d="M323.709 431.797C306.18 432.014 288.65 432.232 271.12 432.449C270.632 432.455 270.631 433.001 271.12 432.995C288.65 432.778 306.18 432.56 323.709 432.342C324.197 432.337 324.199 431.791 323.709 431.797Z" fill="#1A2349"/>
<path d="M323.709 449.731C306.18 449.949 288.65 450.166 271.12 450.384C270.632 450.39 270.631 450.936 271.12 450.93C288.65 450.712 306.18 450.495 323.709 450.277C324.197 450.271 324.199 449.725 323.709 449.731Z" fill="#1A2349"/>
<path d="M298.807 363.502H288.979C288.979 363.502 289.744 384.769 307.515 384.236L298.807 363.502Z" fill="#FBF7F2"/>
<path d="M307.515 384.236L307.601 383.987L314.367 364.321L323.266 364.982C323.266 364.982 323.867 382.586 307.515 384.236Z" fill="#FBF7F2"/>
<path d="M368.145 414.897C368.145 414.897 386.722 411.792 389.068 423.039C389.068 423.039 390.152 426.863 385.021 420.319C385.021 420.319 382.882 418.45 381.707 418.932C381.707 418.932 387.297 423.559 387.524 425.249C387.638 426.107 385.515 428.133 380.355 420.524C380.355 420.524 385.554 428.072 382.064 428.391L378.208 421.442L380.087 428.05C380.087 428.05 378.381 431.684 375.949 422.813C375.928 422.826 375.91 422.849 375.885 422.851C372.417 423.106 369.547 422.859 366.803 420.532L366.348 419.858L368.145 414.897Z" fill="#F4D8BC"/>
<path d="M328.124 334.622C328.124 339.196 325.605 342.903 322.498 342.903C319.391 342.903 316.872 339.196 316.872 334.622C316.872 330.049 319.391 326.342 322.498 326.342C325.605 326.342 328.124 330.049 328.124 334.622Z" fill="#003333"/>
<path d="M324.791 334.664C324.791 338.328 322.963 341.299 320.707 341.299C318.452 341.299 316.624 338.328 316.624 334.664C316.624 330.999 318.452 328.028 320.707 328.028C322.963 328.028 324.791 330.999 324.791 334.664Z" fill="#6E60EB"/>
<path d="M286.383 320.556C286.174 320.597 286.4 320.963 285.977 320.754C283.797 314.825 274.83 314.168 271.653 319.196C268.4 324.343 268.951 332.086 271.313 337.418C272.232 334.828 273.176 332.806 275.036 330.664C275.508 332.718 274.379 335.786 274.629 338.145C274.896 340.662 275.789 342.624 277.219 344.699C277.184 342.626 277.812 340.399 278.406 338.406C278.35 342.104 277.712 347.151 279.525 350.397C282.422 347.332 284.321 343.045 285.464 339.01C286.445 335.547 287.339 332.063 287.507 328.447C287.577 326.937 288.111 323.809 287.068 322.611L286.383 320.556Z" fill="#663333"/>
<path d="M319.244 378.924L319.781 415.89C319.878 422.549 325.755 427.637 332.359 426.779L369.201 421.996L370.671 414.969L335.869 411.708L336.321 385.13C336.453 377.384 332.664 370.095 326.248 365.754C321.018 362.643 319.155 372.84 319.244 378.924Z" fill="#5CA47A"/>
<path d="M300.567 441.095L337.734 441.82L328.192 423.511C330.605 409.889 331.773 388.855 332.287 376.166C332.528 370.214 328.472 365.193 323.266 364.982L287.841 363.547C282.287 363.322 277.813 368.65 278.17 374.994C279.53 399.215 284.049 415.188 289.326 425.928L283.406 440.761L299.943 441.083C299.984 441.124 300.026 441.168 300.067 441.207L300.567 441.095Z" fill="#5CA47A"/>
<path d="M298.807 363.502H288.979C288.979 363.502 289.744 384.769 307.515 384.236L298.807 363.502Z" fill="#FBF7F2"/>
<path d="M307.515 384.236L307.601 383.987L314.367 364.321L323.266 364.982C323.266 364.982 323.867 382.586 307.515 384.236Z" fill="#FBF7F2"/>
<path d="M251.76 399.443C249.609 401.984 248.804 405.179 249.23 408.2C249.791 412.178 252.746 415.411 256.504 416.83L290.613 426.65L294.529 422.576L266.634 406.864L284.443 387.129C289.634 381.378 292.274 376.925 290.292 369.436L289.757 367.261C288.75 363.162 283.52 361.933 280.793 365.154L251.76 399.443Z" fill="#5CA47A"/>
<path d="M294.914 379.62C295.373 380.189 295.839 380.752 296.329 381.298C296.565 381.56 296.95 381.173 296.715 380.912C294.435 378.375 292.515 375.589 290.951 372.559C290.79 372.247 290.319 372.523 290.48 372.835C291.612 375.027 292.939 377.087 294.442 379.024C294.374 379.065 294.321 379.127 294.332 379.236C296.137 398.012 297.796 416.873 294.955 435.636C294.903 435.98 295.429 436.128 295.482 435.781C298.31 417.094 296.71 398.323 294.914 379.62Z" fill="#003333" stroke="#003333" stroke-width="0.0762" stroke-miterlimit="22.9256"/>
<path d="M319.844 378.868C319.844 378.656 319.649 378.588 319.491 378.633C321.256 376.25 322.419 373.458 322.844 370.402C322.892 370.058 322.366 369.91 322.318 370.257C321.632 375.191 319.033 379.468 314.938 382.315C314.651 382.514 314.924 382.988 315.213 382.786C316.795 381.687 318.166 380.381 319.299 378.912C319.308 399.001 322.308 418.81 328.251 438.002C328.354 438.337 328.882 438.194 328.777 437.858C322.847 418.707 319.849 398.917 319.844 378.868Z" fill="#003333"/>
<path d="M297.442 374.695C297.442 374.695 308.634 411.001 292.528 446.489L326.651 445.397C326.651 445.397 310.865 400.306 314.141 373.281L297.442 374.695Z" fill="#FBF7F2"/>
<path d="M312.012 370.174L311.248 372.563C309.877 376.847 304.003 377.318 301.967 373.306L301.464 372.314C300.437 370.283 299.87 368.045 299.815 365.773C299.782 365.512 299.782 365.228 299.793 364.966C299.815 363.764 299.837 362.683 299.837 362.454C299.761 361.493 299.739 360.511 299.728 359.56L299.651 354.745L299.64 354.319L312.689 356.023L312.635 361.995V362.694L312.722 364.649C312.82 366.527 312.58 368.394 312.012 370.174Z" fill="#F4D8BC"/>
<path d="M312.689 356.023L312.635 361.995C311.859 362.159 311.062 362.247 310.232 362.247C305.264 362.247 301.06 359.091 299.651 354.745L299.64 354.319L312.689 356.023Z" fill="#EDB689"/>
<path d="M321.029 330.521C319.139 325.631 315.641 320.657 311.783 317.46C310.12 315.835 308.351 314.88 306.516 314.427C305.513 314.117 304.522 313.957 303.565 314.021C302.908 314.065 302.264 314.142 301.633 314.249C300.999 314.338 300.362 314.459 299.722 314.616C298.79 314.844 297.894 315.296 297.032 315.896C295.419 316.883 294.023 318.327 292.929 320.379C290.219 324.592 288.388 330.392 288.065 335.624C287.149 335.257 286.25 335.111 285.508 335.293C283.022 335.902 282.817 340.023 283.979 342.943C285.453 346.646 288.537 347.4 291.343 347.748C292.967 350.097 295.094 352.315 297.426 354.084C299.914 356.237 302.913 357.655 306.125 357.926C306.22 357.936 306.314 357.942 306.409 357.948C306.595 357.961 306.779 357.989 306.966 357.993C307.092 357.995 307.218 357.975 307.344 357.972C307.45 357.969 307.555 357.96 307.661 357.954C307.903 357.937 308.146 357.915 308.387 357.876C308.629 357.84 308.866 357.788 309.103 357.731C309.206 357.705 309.308 357.681 309.411 357.652C309.531 357.617 309.657 357.598 309.777 357.557C309.954 357.497 310.121 357.415 310.295 357.347C310.382 357.312 310.471 357.278 310.558 357.24C313.539 356.01 315.97 353.75 317.69 350.945C319.378 348.553 320.734 345.798 321.571 343.068C324.14 341.888 321.791 329.894 321.029 330.521Z" fill="#F4D8BC"/>
<path d="M320.691 358.071C322.072 354.748 323.331 351.239 324.247 347.666C326.683 338.169 326.698 328.213 320.141 320.055C318.544 318.067 316.614 316.26 314.247 315.309C313.327 314.939 312.331 314.722 311.335 314.675C308.947 310.016 301.378 309.91 296.687 310.793C285.118 312.971 281.867 325.452 281.621 335.585C281.444 342.909 282.824 350.272 285.652 357.03C288.511 363.86 293.872 369.34 296.401 376.283C299.071 383.615 295.837 394.701 290.309 399.931C296.185 395.702 300.278 391.041 302.287 383.883C304.089 377.465 303.057 370.341 300.263 364.367C298.901 361.455 296.939 359.011 295.394 356.223C293.693 353.153 294.21 350.942 295.54 348.043C298.369 341.881 288.985 337.649 291.118 331.604C292.235 328.439 295.342 326.712 298.573 325.6C300.198 325.041 301.854 324.637 303.303 324.285C304.187 324.07 305.08 323.913 305.944 323.751C308.067 325.936 311.638 326.121 314.041 327.992C318.577 331.526 318.945 337.903 317.959 343.15C315.992 353.622 310.719 363.363 311.748 374.296C312.426 381.49 315.51 388.653 321.11 393.219C317.133 387.455 315.303 380.244 316.052 373.281C316.634 367.866 318.629 363.037 320.691 358.071Z" fill="#663333"/>
<path d="M305.745 320.262C295.96 316.234 284.711 323.379 286.033 334.467C286.462 338.068 288.61 341.066 289.543 344.512C290.65 348.6 289.829 352.696 290.312 356.828C291.467 366.702 299.424 374.558 297.261 384.961C297.19 385.304 297.716 385.45 297.787 385.106C298.855 379.97 297.66 375.368 295.674 370.569C294.379 367.439 292.815 364.414 291.82 361.167C290.578 357.113 290.949 353.183 290.754 349.037C290.485 343.302 286.492 338.528 286.484 332.871C286.467 322.761 296.773 317.155 305.6 320.788C305.924 320.922 306.066 320.393 305.745 320.262Z" fill="#663333"/>
<path d="M308.353 320.148C308.009 320.089 307.861 320.615 308.208 320.674C314.259 321.707 319.481 325.918 320.899 332.084C322.377 338.512 319.076 344.831 317.26 350.815C314.395 360.259 313.437 370.034 314.079 379.865C314.102 380.214 314.648 380.216 314.625 379.865C314.136 372.381 314.535 364.937 316.089 357.584C317.511 350.853 320.932 344.38 321.662 337.543C322.584 328.926 316.826 321.594 308.353 320.148Z" fill="#663333"/>
<path d="M307.726 318.408C302.34 309.687 291.413 314.141 286.362 320.787C278.267 331.441 286.756 344.257 288.714 355.439C288.775 355.784 289.301 355.638 289.241 355.294C287.814 347.151 283.354 339.486 283.433 331.097C283.528 320.959 299.201 305.644 307.254 318.683C307.438 318.981 307.911 318.708 307.726 318.408Z" fill="#663333"/>
<path d="M322.307 330.487C320.68 324.399 316.022 315.887 308.508 318.291C308.175 318.397 308.318 318.925 308.653 318.817C319.065 315.486 322.831 331.91 322.784 338.985C322.732 346.94 319.895 354.533 316.848 361.762C316.712 362.086 317.24 362.227 317.375 361.907C321.522 352.069 325.173 341.204 322.307 330.487Z" fill="#663333"/>
<path d="M305.541 349.737C303.685 349.458 301.554 348.464 300.282 345.653C300.178 345.422 300.281 345.15 300.512 345.045C300.74 344.94 301.014 345.041 301.12 345.274C303.393 350.293 308.674 348.713 308.9 348.644C309.143 348.567 309.398 348.704 309.476 348.946C309.552 349.188 309.416 349.445 309.174 349.521C309.143 349.532 307.493 350.03 305.541 349.737Z" fill="#1A2349"/>
<path d="M297.982 339.714C298.173 340.558 299.007 341.09 299.846 340.9C300.685 340.712 301.212 339.874 301.021 339.03C300.832 338.185 299.997 337.654 299.158 337.843C298.319 338.032 297.792 338.869 297.982 339.714Z" fill="#1A2349"/>
<path d="M310.465 337.781C310.655 338.625 311.489 339.157 312.329 338.968C313.168 338.779 313.694 337.941 313.504 337.097C313.314 336.253 312.48 335.721 311.64 335.911C310.802 336.099 310.275 336.937 310.465 337.781Z" fill="#1A2349"/>
<path d="M295.501 336.122C295.485 336.119 295.469 336.115 295.453 336.111C295.207 336.047 295.059 335.795 295.124 335.55C295.896 332.619 298.393 332.333 299.614 332.576C299.861 332.628 300.02 332.871 299.969 333.118C299.92 333.368 299.703 333.528 299.427 333.477C299.342 333.46 296.756 332.973 296.015 335.783C295.954 336.013 295.731 336.156 295.501 336.122Z" fill="#1A2349"/>
<path d="M308.934 332.239C308.923 332.227 308.913 332.213 308.903 332.2C308.754 331.994 308.8 331.706 309.006 331.558C311.463 329.784 313.574 331.147 314.362 332.11C314.52 332.307 314.489 332.595 314.293 332.754C314.096 332.915 313.827 332.902 313.646 332.688C313.592 332.62 311.903 330.602 309.546 332.304C309.354 332.442 309.09 332.412 308.934 332.239Z" fill="#1A2349"/>
<path d="M308.019 344.661C307.776 344.699 307.55 344.534 307.51 344.291C307.473 344.049 307.637 343.821 307.878 343.781C307.887 343.779 308.724 343.628 308.869 343.141C308.937 342.916 308.933 342.252 307.475 340.917C307.293 340.751 307.282 340.469 307.448 340.288C307.613 340.107 307.895 340.095 308.078 340.26C309.443 341.511 309.983 342.537 309.723 343.399C309.412 344.429 308.077 344.652 308.02 344.661H308.019Z" fill="#1A2349"/>
<path d="M293.484 422.035C293.484 422.035 310.606 423.411 310.411 434.145C310.411 434.145 310.606 437.854 307.288 430.828C307.288 430.828 305.727 428.681 304.556 428.876C304.556 428.876 308.69 434.252 308.546 435.838C308.473 436.644 306.118 438.049 302.995 430.047C302.995 430.047 306.166 438.002 302.92 437.569L300.848 430.438L301.19 436.848C301.19 436.848 298.882 439.805 298.506 431.218C298.484 431.226 298.462 431.243 298.439 431.24C295.227 430.752 292.664 429.932 290.646 427.243L290.371 426.534L293.484 422.035Z" fill="#F4D8BC"/>
<path d="M282.991 440.761H336.785L341.116 451.352C346.444 464.382 336.961 478.701 323.002 478.701H297.554C284.111 478.701 274.659 465.343 279.013 452.497L282.991 440.761Z" fill="black"/>
<path d="M334.295 476.517L351.22 478.155L386.707 576.429H397.081L378.754 474.924C376.897 464.641 370.102 455.93 360.58 451.625L335.933 440.483L334.295 476.517Z" fill="black"/>
<path d="M353.36 465.638C340.783 461.279 327.939 457.943 314.83 455.631C314.487 455.57 314.339 456.096 314.685 456.157C327.794 458.469 340.637 461.805 353.214 466.164C353.547 466.28 353.69 465.752 353.36 465.638Z" fill="#1A2349"/>
<path d="M371.123 520.646C368.238 511.615 366.347 502.285 363.392 493.295C360.378 484.126 356.385 475.203 352.814 466.241C352.686 465.918 352.157 466.059 352.288 466.386C355.738 475.044 359.542 483.656 362.548 492.48C365.706 501.75 367.612 511.447 370.596 520.79C376.563 539.475 382.45 558.228 389.233 576.635C389.354 576.962 389.882 576.821 389.76 576.49C382.976 558.082 377.09 539.33 371.123 520.646Z" fill="#1A2349"/>
<path d="M293.893 476.517L310.818 478.155L346.306 576.429H356.679L338.352 474.924C336.495 464.641 329.7 455.93 320.179 451.625L295.531 440.483L293.893 476.517Z" fill="black"/>
<path d="M318.471 468.667C318.65 468.532 318.609 468.185 318.323 468.185C308.088 468.204 297.934 470.443 287.772 468.363C287.798 468.28 287.799 468.189 287.722 468.107C284.886 465.071 286.101 458.849 286.99 455.284C287.023 455.148 286.951 455.057 286.858 455.002C291.014 452.908 294.232 449.252 295.765 444.687C295.877 444.353 295.35 444.21 295.239 444.541C293.208 450.587 288.123 454.963 281.857 456.11C281.512 456.173 281.658 456.699 282.002 456.636C283.566 456.35 285.055 455.863 286.447 455.206C285.481 459.094 284.31 465.157 287.285 468.43C287.175 468.572 287.178 468.801 287.402 468.848C297.541 470.987 307.7 468.813 317.92 468.737C329.63 504.613 341.339 540.489 353.048 576.365C353.157 576.697 353.684 576.555 353.575 576.22C341.874 540.369 330.172 504.518 318.471 468.667Z" fill="#1A2349"/>
<path d="M381.538 587.759C381.488 589.187 380.45 590.537 378.805 590.537L349.931 590.589C346.843 590.589 344.313 587.993 344.313 584.824L345.68 578.306L346.003 575.268L357.018 575.745C357.018 575.745 379.387 584.487 380.602 585.577C381.285 586.175 381.564 586.98 381.538 587.759Z" fill="#4D8593"/>
<path d="M420.399 587.759C420.351 589.187 419.362 590.537 417.793 590.537L390.263 590.589C387.319 590.589 384.907 587.993 384.907 584.824L386.21 578.306L386.518 575.268L397.021 575.745C397.021 575.745 418.348 584.487 419.506 585.577C420.158 586.175 420.423 586.98 420.399 587.759Z" fill="#4D8593"/>
<path d="M303.721 306.176C294.359 306.176 286.276 313.11 282.579 323.083C282.674 320.558 278.959 318.548 276.708 318.865C273.049 319.382 272.403 323.703 272.206 326.661C272.182 327.011 272.728 327.01 272.752 326.661C272.911 324.277 273.156 321.364 275.401 319.941C277.223 318.787 281.21 320.013 281.918 322.288C281.037 321.313 279.738 320.739 278.354 320.879C276.234 321.093 274.677 322.778 274.061 324.72C273.955 325.056 274.482 325.2 274.588 324.866C275.095 323.268 276.286 321.85 277.99 321.488C279.493 321.168 280.963 321.824 281.8 323.002C276.841 319.425 275.958 331.889 276.092 334.192C276.113 334.542 276.659 334.544 276.638 334.192C276.521 332.174 276.6 330.196 276.988 328.203C277.323 326.475 278.624 320.868 281.885 323.746C281.992 323.841 282.112 323.819 282.208 323.761C282.233 323.823 282.255 323.887 282.277 323.951C281.165 327.229 280.511 330.807 280.441 334.566H283.716C284 320.655 292.867 309.452 303.721 309.452C313.768 309.452 322.112 319.052 323.522 331.514C323.72 333.264 325.239 334.566 327 334.566C326.706 318.843 316.376 306.176 303.721 306.176Z" fill="#003333"/>
<path d="M288.814 338.08C288.814 342.653 286.296 346.361 283.189 346.361C280.082 346.361 277.563 342.653 277.563 338.08C277.563 333.507 280.082 329.8 283.189 329.8C286.296 329.8 288.814 333.507 288.814 338.08Z" fill="#003333"/>
<path d="M285.481 338.121C285.481 341.786 283.653 344.757 281.398 344.757C279.142 344.757 277.314 341.786 277.314 338.121C277.314 334.457 279.142 331.486 281.398 331.486C283.653 331.486 285.481 334.457 285.481 338.121Z" fill="#003333"/>
<path d="M319.155 339.671L318.03 332.277L306.973 333.959L307.483 337.312C306.728 337.178 305.835 337.292 304.856 337.928L304.357 334.649L293.3 336.331L294.425 343.725L305.482 342.043L305.04 339.137C305.945 338.389 306.794 338.169 307.66 338.473L308.098 341.354L319.155 339.671ZM295.34 342.482L294.544 337.246L303.442 335.892L304.239 341.129L295.34 342.482ZM308.216 334.874L317.115 333.52L317.911 338.756L309.013 340.11L308.651 337.732L308.655 337.726C308.653 337.725 308.651 337.724 308.65 337.723L308.216 334.874Z" fill="#3A4162"/>
<path d="M330.523 396.907C330.803 391.643 328.905 385.829 327.983 380.686C327.921 380.34 327.395 380.486 327.456 380.831C328.242 385.211 329.487 389.765 329.769 394.202C330.151 400.207 326.914 403.909 323.804 408.606C323.609 408.899 324.082 409.173 324.275 408.881C324.337 408.787 324.403 408.693 324.467 408.598C324.452 415.047 326.953 421.625 328.534 427.781C328.621 428.121 329.148 427.977 329.06 427.636C327.428 421.279 324.785 414.423 325.021 407.797C327.355 404.497 330.307 400.974 330.523 396.907Z" fill="#003333"/>
<path d="M287.688 383.408C285.158 386.35 282.628 389.292 280.098 392.234C279.87 392.499 280.255 392.887 280.484 392.62C283.014 389.678 285.544 386.736 288.074 383.794C288.302 383.529 287.918 383.141 287.688 383.408Z" fill="#003333"/>
<path d="M237.629 596.332H252.558L189.113 451.527H174.184L237.629 596.332Z" fill="#003333"/>
<path d="M198.816 596.332H152.553L215.998 451.527H262.261L198.816 596.332Z" fill="#003333"/>
<path d="M228.525 465.134C209.324 502.796 190.291 540.586 171.426 578.5C171.273 578.808 171.593 579.089 171.747 578.78C190.612 540.865 209.645 503.075 228.846 465.413C229.002 465.107 228.681 464.827 228.525 465.134Z" fill="#1A2349"/>
<path d="M222.684 489.302C207.882 521.474 192.126 552.991 175.455 583.779C175.291 584.08 175.612 584.36 175.775 584.058C192.447 553.27 208.202 521.754 223.005 489.581C223.149 489.269 222.829 488.988 222.684 489.302Z" fill="#1A2349"/>
<path d="M239.926 474.298C223.715 511.261 206.873 547.825 189.413 583.961C189.264 584.27 189.584 584.551 189.734 584.24C207.194 548.104 224.036 511.54 240.247 474.577C240.385 474.263 240.065 473.981 239.926 474.298Z" fill="#1A2349"/>
<path d="M248.231 469.476C242.333 482.319 236.435 495.162 230.537 508.005C230.394 508.317 230.714 508.598 230.858 508.284L248.552 469.755C248.695 469.443 248.376 469.162 248.231 469.476Z" fill="#1A2349"/>
<path d="M219.737 463.53C206.505 482.147 203.522 507.798 190.743 526.781C190.555 527.059 190.878 527.336 191.063 527.06C203.82 508.111 206.783 482.486 219.981 463.917C220.172 463.649 219.929 463.259 219.737 463.53Z" fill="#1A2349"/>
<path d="M186.677 538.182L172.75 564.534C169.203 571.246 163.708 578.975 162.314 586.841C162.253 587.186 162.662 587.193 162.723 586.849C163.625 581.758 166.443 577.353 168.749 572.991C170.83 569.054 172.911 565.116 174.992 561.178C178.994 553.606 182.996 546.033 186.998 538.461C187.158 538.158 186.838 537.878 186.677 538.182Z" fill="#1A2349"/>
<path d="M223.316 527.297C214.561 546.843 202.457 566.966 195.782 587.579C195.674 587.912 194.959 588.063 195.067 587.729C201.728 567.161 214.899 547.083 223.637 527.576C223.778 527.262 223.458 526.981 223.316 527.297Z" fill="#1A2349"/>
<path d="M198.113 548.552C197.305 549.596 196.611 550.728 196.024 551.933C195.997 551.973 195.968 552.005 195.941 552.047C195.906 552.101 195.894 552.152 195.891 552.201C195.241 553.59 194.735 555.074 194.39 556.647C194.339 556.882 194.47 557.062 194.655 556.957C196.608 555.843 197.871 553.359 197.882 550.731C197.882 550.592 197.752 550.496 197.653 550.537C197.438 550.627 197.247 550.737 197.064 550.859C197.456 550.191 197.885 549.549 198.357 548.938C198.558 548.679 198.315 548.29 198.113 548.552ZM197.382 552.074C197.379 552.693 196.937 553.662 196.671 554.174C196.207 555.066 195.609 555.725 194.911 556.214C195.262 554.796 195.744 553.452 196.354 552.193C196.901 551.392 197.388 551.076 197.382 552.074Z" fill="#1A2349"/>
<path d="M232.513 472.597C232.458 472.274 232.047 472.406 232.103 472.733C232.129 472.888 232.146 473.044 232.165 473.2C232.158 473.211 232.148 473.209 232.141 473.222C231.796 473.862 228.036 479.782 230.406 479.497C231.228 479.397 231.821 478.196 232.13 477.308C232.671 475.755 232.771 474.119 232.513 472.597ZM231.143 478.382C230.814 478.934 230.484 478.758 230.151 477.854C230.237 477.672 230.323 477.489 230.409 477.306C230.625 476.877 230.866 476.459 231.093 476.038C231.471 475.338 231.849 474.638 232.226 473.937C232.249 474.471 232.23 475.013 232.147 475.567C232.031 476.337 231.706 477.894 231.143 478.382Z" fill="#1A2349"/>
<path d="M507.836 442.188H166.941C163.999 442.188 161.614 444.573 161.614 447.514C161.614 450.456 163.999 452.841 166.941 452.841H499.792L436.922 596.332H448.865L512.697 453.88C513.004 453.195 513.163 452.453 513.163 451.702V447.514C513.163 444.573 510.778 442.188 507.836 442.188Z" fill="#5CA47A"/>
<path d="M481.457 417.917H371.64C366.889 417.917 363.336 413.643 364.297 409.084L380.158 333.875C380.877 330.462 383.945 328.015 387.501 328.015H497.317C502.068 328.015 505.621 332.289 504.66 336.847L488.799 412.057C488.08 415.469 485.013 417.917 481.457 417.917Z" fill="#C4D6DF"/>
<path d="M482.576 417.917H377.163C372.603 417.917 369.192 413.729 370.114 409.263L385.339 335.576C386.03 332.233 388.974 329.835 392.388 329.835H497.801C502.362 329.835 505.773 334.022 504.85 338.488L489.625 412.175C488.934 415.519 485.99 417.917 482.576 417.917Z" fill="#D8E4E9"/>
<path d="M429.263 414.402L434.57 439.391H466.964L456.481 407.113C454.507 401.035 448.693 397.043 442.311 397.383C433.658 397.845 427.463 405.926 429.263 414.402Z" fill="#C4D6DF"/>
<path d="M449.857 376.242C449.857 380.563 446.354 384.067 442.032 384.067C437.71 384.067 434.207 380.563 434.207 376.242C434.207 371.92 437.71 368.416 442.032 368.416C446.354 368.416 449.857 371.92 449.857 376.242Z" fill="#C4D6DF"/>
<path d="M497.356 438.299H374.696C373.591 438.299 372.694 439.196 372.694 440.301C372.694 441.407 373.591 442.303 374.696 442.303H497.356C498.462 442.303 499.358 441.407 499.358 440.301C499.358 439.196 498.462 438.299 497.356 438.299Z" fill="#D8E4E9"/>
<path d="M185.417 440.021H255.341C255.972 440.021 256.483 440.532 256.483 441.162C256.483 441.792 255.972 442.303 255.341 442.303H185.417C184.787 442.303 184.276 441.792 184.276 441.162C184.276 440.532 184.787 440.021 185.417 440.021Z" fill="#D8E4E9"/>
<path d="M194.481 428.401H257.083C259.792 428.401 261.817 425.965 261.269 423.366L252.228 380.492C251.817 378.547 250.069 377.152 248.042 377.152H185.439C182.731 377.152 180.705 379.588 181.253 382.187L190.295 425.061C190.705 427.006 192.454 428.401 194.481 428.401Z" fill="#C4D6DF"/>
<path d="M193.842 428.401H253.935C256.535 428.401 258.479 426.014 257.953 423.468L249.274 381.462C248.88 379.556 247.202 378.189 245.256 378.189H185.163C182.564 378.189 180.619 380.576 181.145 383.122L189.824 425.128C190.218 427.034 191.896 428.401 193.842 428.401Z" fill="#D8E4E9"/>
<path d="M224.235 426.398L221.209 440.643H202.742L208.719 422.243C209.844 418.778 213.158 416.502 216.796 416.696C221.729 416.959 225.261 421.565 224.235 426.398Z" fill="#C4D6DF"/>
<path d="M212.495 404.644C212.495 407.108 214.492 409.105 216.955 409.105C219.419 409.105 221.417 407.108 221.417 404.644C221.417 402.18 219.419 400.183 216.955 400.183C214.492 400.183 212.495 402.18 212.495 404.644Z" fill="#C4D6DF"/>
<path d="M364.004 438.759H269.552C268.572 438.759 267.778 439.553 267.778 440.533C267.778 441.513 268.572 442.308 269.552 442.308H364.004C364.984 442.308 365.779 441.513 365.779 440.533C365.779 439.553 364.984 438.759 364.004 438.759Z" fill="#D8E4E9"/>
<path d="M216.269 355.976H164.655C159.193 355.976 154.764 351.547 154.764 346.085V295.171C154.764 289.709 159.193 285.28 164.655 285.28H216.269C221.731 285.28 226.16 289.709 226.16 295.171V346.085C226.16 351.547 221.731 355.976 216.269 355.976Z" fill="#F0C459"/>
<path d="M185.314 299.219H219.2" stroke="white" stroke-width="0.3528" stroke-miterlimit="10"/>
<path d="M161.328 309.592H218.927" stroke="white" stroke-width="0.3528" stroke-miterlimit="10"/>
<path d="M161.328 319.42H218.927" stroke="white" stroke-width="0.3528" stroke-miterlimit="10"/>
<path d="M161.328 329.247H218.927" stroke="white" stroke-width="0.3528" stroke-miterlimit="10"/>
<path d="M161.328 339.075H218.927" stroke="white" stroke-width="0.3528" stroke-miterlimit="10"/>
<path d="M161.486 291.418V291.071L163.493 290.224V290.594L161.902 291.247L163.493 291.906V292.276L161.486 291.418ZM163.727 292.795L164.605 289.662H164.903L164.027 292.795H163.727ZM167.144 291.418L165.137 292.276V291.906L166.726 291.247L165.137 290.594V290.224L167.144 291.071V291.418Z" fill="white"/>
<path d="M366.942 283.49L370.442 308.688L376.041 300.989L384.441 313.588L389.775 309.343L380.583 297.441L388.641 293.989L366.942 283.49Z" fill="white"/>
<path d="M489.443 285.065H453.711C450.512 285.065 447.918 287.659 447.918 290.858V301.08V305.843V321.827L454.534 311.636H489.443C492.642 311.636 495.236 309.042 495.236 305.843V290.858C495.236 287.659 492.642 285.065 489.443 285.065Z" fill="#E26B6D"/>
<path d="M461.328 292.912L461.729 293.014C461.645 293.343 461.493 293.594 461.274 293.768C461.056 293.94 460.79 294.026 460.474 294.026C460.147 294.026 459.881 293.96 459.676 293.828C459.472 293.694 459.316 293.501 459.209 293.249C459.103 292.997 459.05 292.726 459.05 292.437C459.05 292.121 459.11 291.846 459.23 291.612C459.351 291.377 459.522 291.198 459.744 291.077C459.968 290.954 460.213 290.893 460.48 290.893C460.783 290.893 461.038 290.97 461.245 291.124C461.452 291.279 461.596 291.496 461.677 291.775L461.282 291.868C461.212 291.648 461.11 291.487 460.976 291.387C460.843 291.286 460.675 291.236 460.472 291.236C460.239 291.236 460.044 291.292 459.887 291.403C459.731 291.515 459.622 291.665 459.558 291.854C459.495 292.041 459.463 292.235 459.463 292.435C459.463 292.693 459.5 292.918 459.575 293.111C459.651 293.302 459.768 293.446 459.926 293.541C460.085 293.636 460.256 293.683 460.441 293.683C460.666 293.683 460.856 293.619 461.011 293.489C461.167 293.36 461.273 293.167 461.328 292.912ZM462.088 293.001L462.467 292.968C462.485 293.12 462.526 293.244 462.591 293.342C462.657 293.439 462.759 293.517 462.897 293.578C463.034 293.637 463.189 293.667 463.362 293.667C463.515 293.667 463.65 293.644 463.767 293.599C463.884 293.553 463.971 293.491 464.027 293.413C464.085 293.333 464.114 293.246 464.114 293.152C464.114 293.057 464.087 292.974 464.031 292.904C463.976 292.832 463.885 292.772 463.759 292.724C463.677 292.693 463.497 292.644 463.219 292.577C462.941 292.51 462.746 292.447 462.634 292.387C462.489 292.312 462.381 292.218 462.31 292.106C462.239 291.993 462.204 291.867 462.204 291.728C462.204 291.575 462.248 291.432 462.334 291.3C462.421 291.166 462.548 291.065 462.715 290.996C462.881 290.927 463.067 290.893 463.271 290.893C463.495 290.893 463.693 290.929 463.864 291.002C464.036 291.074 464.169 291.18 464.261 291.321C464.353 291.461 464.403 291.62 464.41 291.798L464.025 291.827C464.005 291.636 463.934 291.491 463.814 291.393C463.696 291.295 463.52 291.246 463.287 291.246C463.045 291.246 462.868 291.291 462.756 291.381C462.646 291.469 462.591 291.576 462.591 291.701C462.591 291.81 462.63 291.899 462.708 291.97C462.786 292.04 462.987 292.112 463.312 292.187C463.639 292.26 463.863 292.324 463.984 292.379C464.16 292.46 464.29 292.564 464.375 292.689C464.459 292.813 464.501 292.956 464.501 293.119C464.501 293.28 464.454 293.433 464.362 293.576C464.27 293.718 464.137 293.829 463.963 293.909C463.791 293.987 463.597 294.026 463.38 294.026C463.106 294.026 462.876 293.987 462.69 293.907C462.505 293.827 462.36 293.707 462.254 293.547C462.149 293.386 462.094 293.204 462.088 293.001ZM464.912 293.001L465.29 292.968C465.308 293.12 465.349 293.244 465.414 293.342C465.48 293.439 465.582 293.517 465.72 293.578C465.858 293.637 466.013 293.667 466.185 293.667C466.338 293.667 466.473 293.644 466.59 293.599C466.708 293.553 466.794 293.491 466.851 293.413C466.909 293.333 466.938 293.246 466.938 293.152C466.938 293.057 466.91 292.974 466.855 292.904C466.8 292.832 466.709 292.772 466.582 292.724C466.501 292.693 466.321 292.644 466.043 292.577C465.764 292.51 465.569 292.447 465.458 292.387C465.313 292.312 465.205 292.218 465.133 292.106C465.063 291.993 465.028 291.867 465.028 291.728C465.028 291.575 465.071 291.432 465.158 291.3C465.245 291.166 465.372 291.065 465.538 290.996C465.705 290.927 465.89 290.893 466.094 290.893C466.319 290.893 466.517 290.929 466.688 291.002C466.86 291.074 466.992 291.18 467.084 291.321C467.177 291.461 467.226 291.62 467.233 291.798L466.849 291.827C466.828 291.636 466.758 291.491 466.638 291.393C466.519 291.295 466.344 291.246 466.111 291.246C465.868 291.246 465.691 291.291 465.58 291.381C465.469 291.469 465.414 291.576 465.414 291.701C465.414 291.81 465.454 291.899 465.532 291.97C465.609 292.04 465.81 292.112 466.136 292.187C466.462 292.26 466.686 292.324 466.807 292.379C466.984 292.46 467.114 292.564 467.198 292.689C467.282 292.813 467.324 292.956 467.324 293.119C467.324 293.28 467.278 293.433 467.186 293.576C467.093 293.718 466.96 293.829 466.787 293.909C466.615 293.987 466.42 294.026 466.204 294.026C465.93 294.026 465.699 293.987 465.513 293.907C465.329 293.827 465.183 293.707 465.077 293.547C464.973 293.386 464.917 293.204 464.912 293.001Z" fill="white"/>
<path d="M267.612 260.115H303.344C306.543 260.115 309.137 262.709 309.137 265.907V276.13V280.893V296.877L302.521 286.686H267.612C264.413 286.686 261.819 284.092 261.819 280.893V265.907C261.819 262.709 264.413 260.115 267.612 260.115Z" fill="#FBF7F2"/>
<path d="M268.84 269.242V266.211H269.241V267.456H270.816V266.211H271.217V269.242H270.816V267.813H269.241V269.242H268.84ZM272.658 269.242V266.569H271.66V266.211H274.061V266.569H273.059V269.242H272.658ZM274.462 269.242V266.211H275.066L275.783 268.357C275.849 268.557 275.898 268.706 275.928 268.806C275.962 268.695 276.016 268.533 276.089 268.32L276.815 266.211H277.354V269.242H276.968V266.705L276.087 269.242H275.725L274.849 266.662V269.242H274.462ZM277.985 269.242V266.211H278.386V268.884H279.878V269.242H277.985Z" fill="#E16B6C"/>
</svg>
