<svg width="100" height="100" viewBox="0 0 100 100" fill="none" xmlns="http://www.w3.org/2000/svg">
<g clip-path="url(#clip0)">
<path d="M100 50C100 66.0775 92.4102 80.3836 80.6184 89.5307C72.1592 96.0939 61.5367 100 50 100C38.4633 100 27.8408 96.0939 19.3816 89.5307C7.58984 80.3836 0 66.0775 0 50C0 22.3857 22.3857 0 50 0C77.6143 0 100 22.3857 100 50Z" fill="#F2F2F2"/>
<path d="M86.3266 23.3348L80.6184 89.5307C72.1592 96.094 61.5367 100 50 100C38.4633 100 27.8408 96.094 19.3816 89.5307L13.6734 23.3348H86.3266Z" fill="#006BC0"/>
<path d="M49.9994 29.5582V98.6906L73.8806 91.9487L79.208 29.5582H49.9994Z" fill="#0096DC"/>
<path d="M71.1008 56.599H53.8769L71.8748 47.4394L72.6525 38.2316H27.3463L28.1391 47.6193H46.326L28.876 56.3445L29.6879 65.9615H60.8156L59.7953 77.4152L49.9994 80.0683L39.7953 77.2111L39.5402 70.0683H30.0348L31.2238 84.15L49.9994 89.456L68.7748 84.15L71.1014 56.5974L71.1008 56.599Z" fill="white"/>
<path d="M32.2953 13.1297V6.59901H41.683V3.06171H28.8939V16.667H41.683V13.1297H32.2953Z" fill="#222123"/>
<path d="M47.1762 8.38475V6.75194H56.5131V6.59901V3.06171H43.7238V11.4969H52.8904V13.1297H43.7238V16.667H56.5131V13.1297V8.38475H47.1762Z" fill="#222123"/>
<path d="M61.768 8.38475V6.75194H71.1047V6.59901V3.06171H58.3156V11.4969H67.4822V13.1297H58.3156V16.667H71.1047V13.1297V8.38475H61.768Z" fill="#222123"/>
</g>
<defs>
<clipPath id="clip0">
<rect width="100" height="100" fill="white"/>
</clipPath>
</defs>
</svg>
