<svg width="100" height="100" viewBox="0 0 100 100" fill="none" xmlns="http://www.w3.org/2000/svg">
<path d="M50 0C22.3858 0 0 22.3857 0 50C0 77.6144 22.3859 100 50 100C77.6144 100 100 77.6143 100 50C100 22.3857 77.6144 0 50 0ZM10.7437 50.5212L49.4787 89.2563C28.2088 88.979 11.0209 71.7911 10.7437 50.5212ZM58.7876 88.2747L11.7253 41.2124C15.7159 23.7591 31.3369 10.7372 50 10.7372C63.0459 10.7372 74.6035 17.1016 81.7433 26.8931L76.3071 31.6898C70.5155 23.3843 60.8932 17.9487 50 17.9487C36.1308 17.9487 24.3201 26.7583 19.8559 39.0866L60.9135 80.1442C70.8844 76.5335 78.5528 68.1166 81.1211 57.6923H64.1026V50.0001H82.0513V49.9999H89.2628V50C89.2628 68.6631 76.241 84.2841 58.7876 88.2747Z" fill="#744C9E"/>
</svg>
