<svg width="100" height="100" viewBox="0 0 100 100" fill="none" xmlns="http://www.w3.org/2000/svg">
<g clip-path="url(#clip0)">
<path d="M100 50C100 66.0775 92.4102 80.3836 80.6184 89.5307C72.1592 96.0939 61.5367 100 50 100C38.5674 100 28.0326 96.1633 19.6102 89.7061C7.6877 80.5693 0 66.1816 0 50C0 22.3857 22.3857 0 50 0C77.6143 0 100 22.3857 100 50Z" fill="#F2F2F2"/>
<path d="M86.3266 23.3348L80.6183 89.5307C72.1592 96.094 61.5367 100 50 100C38.5674 100 28.0326 96.1633 19.6102 89.7061L13.8877 23.3348H86.3266Z" fill="#E64C18"/>
<path d="M50.1067 29.5408V98.4701L73.918 91.7481L79.2295 29.5408H50.1067Z" fill="#F36518"/>
<path d="M27.5201 38.1891L29.8551 65.8381H60.8908L59.8754 77.2594L50.1072 79.9047L39.9336 77.0547L39.6781 69.9338H30.2014L31.3877 83.9729L50.1072 89.2633L68.8265 83.9729L71.1465 56.503H38.4625L37.6514 47.55L37.6512 47.5496L71.9191 47.3701L72.6941 38.1891H27.5201Z" fill="white"/>
<path d="M29.5232 3.28046V8.03065H24.9846V3.28046H20.7623V16.8971H24.9846V12.4639H29.5232V16.8971H33.7455V3.28046H29.5232Z" fill="black"/>
<path d="M48.7346 3.28046H35.751V8.03065H39.9732V17.0029H44.5123V8.03065H48.7346V3.28046Z" fill="black"/>
<path d="M72.907 12.6748V3.38611H68.368V12.6748V17.0029H72.907H79.4512V12.6748H72.907Z" fill="black"/>
<path d="M61.5066 3.38611L58.3402 8.24158L55.1734 3.38611H50.6346V17.0029H55.1734V10.247L58.3402 15.1029L61.5066 10.247V17.0029H66.0457V3.38611H61.5066Z" fill="black"/>
</g>
<defs>
<clipPath id="clip0">
<rect width="100" height="100" fill="white"/>
</clipPath>
</defs>
</svg>
