<svg width="100" height="96" viewBox="0 0 100 96" fill="none" xmlns="http://www.w3.org/2000/svg">
<path d="M89.2857 0H10.7143C4.79911 0 0 4.58097 0 10.2273V85.2273C0 90.8736 4.79911 95.4545 10.7143 95.4545H89.2857C95.2009 95.4545 100 90.8736 100 85.2273V10.2273C100 4.58097 95.2009 0 89.2857 0ZM54.4196 74.446C54.4196 83.7358 48.7054 87.9758 40.3795 87.9758C32.8571 87.9758 28.5045 84.2685 26.2723 79.7727L33.9286 75.3622C35.4018 77.8551 36.7411 79.9645 39.9777 79.9645C43.058 79.9645 45.0223 78.8139 45.0223 74.3182V43.8281H54.4196V74.446V74.446ZM76.6518 87.9758C67.9241 87.9758 62.2768 84.0128 59.5313 78.8139L67.1875 74.5952C69.1964 77.7273 71.8304 80.0497 76.4509 80.0497C80.3348 80.0497 82.8348 78.196 82.8348 75.6179C82.8348 72.5497 80.2902 71.4631 75.9821 69.652L73.6384 68.6932C66.8527 65.9446 62.3661 62.4716 62.3661 55.1633C62.3661 48.4304 67.7455 43.3168 76.1161 43.3168C82.0982 43.3168 86.3839 45.2983 89.4643 50.4972L82.1429 54.9716C80.5357 52.223 78.7946 51.1364 76.0937 51.1364C73.3482 51.1364 71.6071 52.7983 71.6071 54.9716C71.6071 57.6562 73.3482 58.7429 77.3884 60.4261L79.7321 61.3849C87.7232 64.6449 92.2098 67.9901 92.2098 75.4901C92.2098 83.544 85.558 87.9758 76.6518 87.9758V87.9758Z" fill="white"/>
</svg>
