<svg width="100" height="100" viewBox="0 0 100 100" fill="none" xmlns="http://www.w3.org/2000/svg">
<path d="M100 50C100 56.5143 98.7551 62.7367 96.4877 68.4449C95.2754 71.498 93.7713 74.4041 92.008 77.1266C89.8121 80.5225 87.2141 83.6348 84.2836 86.3939C82.5672 88.0123 80.7387 89.5082 78.808 90.8715C70.6652 96.6225 60.7285 100 50 100C39.2715 100 29.3348 96.6225 21.1918 90.8715C18.7754 89.1654 16.5184 87.2531 14.4469 85.1551C5.51426 76.1244 0 63.7041 0 50C0 36.2959 5.51426 23.8756 14.4469 14.8449C16.6408 12.6246 19.0428 10.6102 21.6203 8.83066C29.6816 3.26113 39.4592 0 50 0C60.5408 0 70.3184 3.26113 78.3797 8.83066C80.349 10.1879 82.2145 11.6857 83.9633 13.3082C87.0266 16.1408 89.7326 19.3551 92.0082 22.8734C93.7715 25.5959 95.2756 28.502 96.4879 31.5551C98.7551 37.2633 100 43.4857 100 50Z" fill="#E4BA42"/>
<path d="M76.3769 45.502C74.9853 41.466 69.2791 41.466 68.166 44.8061C67.0527 48.1461 70.8103 50.0943 76.6555 52.043C82.5006 53.9914 86.1191 59.1408 85.4232 63.7332C84.7273 68.3256 82.7789 74.3102 71.2279 74.3102C64.0086 74.3102 59.9965 69.7978 58.0025 66.4139L64.5477 62.4807C64.5477 62.4807 66.7744 67.2125 70.9494 67.2125C75.1246 67.2125 76.7945 65.8209 76.7945 62.6199C76.7945 58.7232 63.2949 57.3316 61.2074 50.6514C59.1199 43.9711 61.9033 34.5076 71.6451 35.2033C77.734 35.6383 81.1588 38.6281 82.8713 40.8094L76.3769 45.502Z" fill="#F2F2F2"/>
<path d="M46.0379 35.8994C46.0379 35.8994 46.0379 59.4191 46.0379 62.6201C46.0379 65.8209 43.2545 67.4912 40.4711 66.9344C37.6877 66.3777 36.4351 63.0377 36.4351 63.0377L30.0334 67.3519C30.0334 67.3519 31.425 73.7537 40.1928 74.3105C48.9605 74.8672 53.9705 69.5787 53.9705 65.1252C53.9705 60.6717 53.9705 35.8994 53.9705 35.8994H46.0379Z" fill="#F2F2F2"/>
<path d="M14.4469 8.83069V85.1551C16.5184 87.2531 18.7754 89.1653 21.1918 90.8715H78.8082C80.7388 89.5082 82.5674 88.0123 84.2838 86.394H18.9244V13.3082H92.008V77.1266C93.7713 74.4041 95.2754 71.4981 96.4877 68.4449V8.83069H14.4469Z" fill="#F2F2F2"/>
<path d="M17.1592 74.1715C21.5402 74.1715 25.0918 70.62 25.0918 66.2389C25.0918 61.8578 21.5402 58.3063 17.1592 58.3063C12.7781 58.3063 9.22656 61.8578 9.22656 66.2389C9.22656 70.62 12.7781 74.1715 17.1592 74.1715Z" fill="#3F4A43"/>
</svg>
