<svg width="100" height="100" viewBox="0 0 100 100" fill="none" xmlns="http://www.w3.org/2000/svg">
<path d="M100 50C100 57.2143 98.4715 64.0734 95.7205 70.2674C95.2736 71.2797 94.7898 72.2734 94.2777 73.249C85.9082 89.1551 69.2203 100 50 100C29.749 100 12.3102 87.9611 4.44902 70.649C3.07754 67.6287 1.99805 64.449 1.24707 61.1449C0.430664 57.5611 0 53.8307 0 50C0 22.3857 22.3857 0 50 0C72.4633 0 91.4652 14.8123 97.7756 35.2041C97.9756 35.8531 98.1633 36.5102 98.3389 37.1715V37.1734C98.6654 38.4102 98.9471 39.6611 99.1797 40.9326C99.2879 41.5244 99.3857 42.1184 99.4715 42.7162C99.5307 43.1162 99.5857 43.5162 99.6326 43.9203C99.7225 44.6428 99.7937 45.3713 99.851 46.1039C99.949 47.3898 100 48.6898 100 50Z" fill="#F2F2F2"/>
<path d="M71.8674 15.159C71.8674 15.159 73.3166 16.6496 73.5648 17.7674C73.5648 17.7674 74.6 16.9806 73.8961 15.7387C73.1922 14.4965 71.8674 15.159 71.8674 15.159Z" fill="#5181A2"/>
<path d="M98.3389 37.1715C97.0369 36.5164 95.8531 36.1287 94.9266 35.9C93.6734 35.5898 92.6592 34.6674 92.2205 33.4531C91.6572 31.8959 90.6082 29.3734 88.6777 25.5512C84.8676 18.0164 80.6451 15.698 77.8717 13.7512C76.0514 12.4736 73.6594 12.2144 72.2309 12.1859C71.5105 12.1717 70.8166 11.9084 70.2635 11.4451C68.8084 10.2207 65.9471 8.78182 65.0369 9.32068C63.9186 9.98397 65.0369 11.5166 66.6084 13.4615C68.1818 15.4084 68.5145 17.5615 69.6309 20.4596C70.1473 21.7963 70.7697 22.6045 71.2881 23.0861C71.8309 23.5922 72.0084 24.3779 71.7207 25.0595C70.6717 27.5392 70.3207 30.6799 70.9146 33.584C71.6187 37.0207 73.233 36.9799 73.233 36.9799C73.0678 32.384 75.4697 30.3963 75.4697 30.3963C77.6637 37.1023 82.6738 42.1127 82.6738 42.1127C78.6166 40.6637 75.5943 34.0392 75.5943 34.0392C75.5943 34.0392 75.2637 34.3699 74.9738 36.5658C74.684 38.7597 72.033 40.0842 70.0881 35.2822C68.1412 30.4781 70.6676 24.4332 70.6676 24.4332C69.5492 23.8535 67.2309 18.5129 67.2309 17.6842C67.2309 16.8576 66.3186 15.0351 65.2023 13.9168C64.084 12.8004 61.89 9.5699 64.4574 8.08006C67.0227 6.58826 72.1166 10.6045 72.1166 10.6045C80.1492 10.3146 88.4289 20.0861 89.7533 23.5637C91.0777 27.0412 94.8043 33.9984 94.8043 33.9984C95.8615 34.3189 96.8553 34.7332 97.7758 35.2045C97.9756 35.8531 98.1633 36.5101 98.3389 37.1715Z" fill="#5181A2"/>
<path d="M99.851 46.1041C99.8101 46.0857 99.7713 46.0652 99.7326 46.0469C97.1652 44.8041 96.1306 42.1959 96.1306 42.1959C96.7959 41.5307 97.9756 41.149 99.1797 40.9326C99.2879 41.5244 99.3857 42.1184 99.4715 42.7162C99.0224 42.8039 98.7389 42.857 98.7389 42.857C98.7389 43.1102 99.092 43.4877 99.6328 43.9203C99.7224 44.6428 99.7939 45.3715 99.851 46.1041Z" fill="#5181A2"/>
<path d="M26.049 73.1756H22.1367C22.1367 73.1756 22.1367 64.2348 20.8326 53.6145L14.6836 73.1756H11.5164L5.27559 53.7082C5.27559 53.7082 4.54902 59.4285 4.44902 70.649C3.07754 67.6287 1.99805 64.449 1.24707 61.1449C1.53477 56.9918 1.93887 52.4652 2.48184 48.7715H7.57363L13.3797 66.843L19.5287 48.7715H24.1859C24.1857 48.7715 26.049 64.7 26.049 73.1756Z" fill="#FFA600"/>
<path d="M28.2076 55.3617L32.2443 55.2996C32.2443 55.2996 36.7779 68.9006 36.3434 70.5773C36.3434 70.5773 39.2623 62.4416 40.0076 55.2996H43.9822C43.9822 55.2996 41.8705 69.708 35.4119 77.2848C32.9949 80.1201 30.2826 80.1549 27.834 79.0887V76.9123C27.834 76.9123 31.1889 78.0924 32.9279 75.608C34.3279 73.608 32.9908 70.1592 31.7682 66.4926C31.4717 65.6047 28.2076 55.3617 28.2076 55.3617Z" fill="#FFA600"/>
<path d="M46.4664 71.385L47.5221 69.2732C47.5221 69.2732 54.7885 72.5025 56.6514 69.2732C58.5145 66.0439 56.7135 64.3049 53.0494 62.3795C49.3853 60.4541 45.5348 58.0322 47.2115 52.7531C48.8885 47.4742 57.7693 47.8469 60.3156 50.3932L59.4463 52.4426C59.4463 52.4426 52.8633 49.6479 51.0623 53.3119C49.2613 56.976 54.0434 58.715 55.1613 59.2119C56.2793 59.7088 62.4897 62.2549 61.8066 66.7887C61.1236 71.3225 58.3287 74.117 51.932 73.558C49.6336 72.9996 48.3295 72.627 46.4664 71.385Z" fill="#5181A2"/>
<path d="M79.1898 71.6797C81.9348 69.4737 83.1123 65.549 83.1123 61.0756C83.1123 54.1756 81.1265 48.5817 73.2816 48.5817C66.5265 48.5817 63.451 54.1756 63.451 61.0756C63.451 67.9756 65.7 73.5696 73.2816 73.5696C74.3797 73.5696 75.3756 73.4328 76.2734 73.1756L82.1142 76.6022L83.5428 73.8063L79.1898 71.6797ZM73.2816 70.5776C68.8857 70.5776 67.5816 66.3225 67.5816 61.0756C67.5816 55.8266 68.8244 51.5737 73.2816 51.5737C77.8285 51.5737 78.9797 55.8268 78.9797 61.0756C78.9795 66.3225 77.8285 70.5776 73.2816 70.5776Z" fill="#5181A2"/>
<path d="M95.7203 70.2674C95.2734 71.2797 94.7896 72.2735 94.2775 73.249H86.5857V48.902H90.4367V70.2672H95.7203V70.2674Z" fill="#5181A2"/>
</svg>
