<svg width="100" height="100" viewBox="0 0 100 100" fill="none" xmlns="http://www.w3.org/2000/svg">
<path d="M100 50C100 53.0244 99.7307 55.9857 99.2164 58.8611C95.0348 82.249 74.5898 100 50 100C31.4734 100 15.3 89.9244 6.66328 74.9531C4.55508 71.3021 2.89805 67.3613 1.76328 63.2041C0.612305 58.9981 0 54.5693 0 50C0 22.3857 22.3857 0 50 0C72.7918 0 92.0203 15.249 98.0428 36.102C99.3164 40.5143 100 45.1775 100 50Z" fill="#8F9ED1"/>
<path d="M25.4244 34.8123H7.01016L1.76328 63.2041C2.89805 67.3613 4.55508 71.3022 6.66328 74.9531H8.37149L10.4041 63.9572H20.5225C32.8428 63.9572 36.1551 52.8961 36.949 47.4633C37.7449 42.0326 33.7715 34.8123 25.4244 34.8123ZM28.0959 48.3795C27.6449 51.4592 25.3693 57.7305 18.3857 57.7305H11.5551L14.6082 41.2061H21.5613C28.3389 41.2061 28.5469 45.3 28.0959 48.3795Z" fill="#F2F2F2"/>
<path d="M98.0428 36.102C96.4775 35.2938 94.6121 34.8121 92.457 34.8121H74.0427L66.6244 74.9531H75.4039L77.4365 63.9572H87.5549C93.0345 63.9572 96.7324 61.7696 99.216 58.8613C99.7306 55.9858 100 53.0244 100 50C100 45.1776 99.3164 40.5143 98.0428 36.102ZM95.1285 48.3795C94.6775 51.4592 92.4019 57.7305 85.4162 57.7305H78.5877L81.6408 41.2061H88.5939C95.3715 41.2061 95.5795 45.3 95.1285 48.3795Z" fill="#F2F2F2"/>
<path d="M60.398 34.9451C56.8248 34.9451 52.0574 34.9451 49.7346 34.9451L51.7361 24.1149H42.9928L35.5742 64.2547H44.3176L48.5838 41.1715C50.16 41.1715 52.2537 41.1715 54.1717 41.1715C57.8809 41.1715 60.398 41.9664 59.868 45.4108C59.3381 48.8551 56.2912 64.0897 56.2912 64.0897H65.167C65.167 64.0897 68.6113 47.133 69.1412 42.3637C69.6713 37.5946 65.2996 34.9451 60.398 34.9451Z" fill="#F2F2F2"/>
</svg>
