<svg width="100" height="100" viewBox="0 0 100 100" fill="none" xmlns="http://www.w3.org/2000/svg">
<path d="M100 50C100 66.4734 92.0326 81.0857 79.7428 90.1959C74.5978 94.0082 68.6959 96.857 62.3039 98.4734C58.3674 99.4715 54.2469 100 50 100C45.7531 100 41.6307 99.4715 37.6939 98.4734C31.3021 96.857 25.4 94.0082 20.2551 90.1937C7.96523 81.0836 0 66.4715 0 50C0 22.3857 22.3857 0 50 0C77.6143 0 100 22.3857 100 50Z" fill="#5ADAFD"/>
<path d="M79.7939 78.1531C79.5592 76.5797 79.249 74.9592 78.8654 73.3022C78.5266 71.8471 78.1328 70.3633 77.6859 68.8572C76.5103 64.9022 74.9615 60.792 73.084 56.6369C72.2615 54.8205 71.3758 52.9961 70.4309 51.1736C69.5982 49.5676 68.7207 47.9594 67.7961 46.3613C66.8736 44.7613 65.9226 43.1981 64.9451 41.6736C63.841 39.9451 62.7043 38.2676 61.541 36.6471C58.8838 32.943 56.0982 29.5451 53.2594 26.549C52.1799 25.4082 51.092 24.3266 50.0002 23.3082C48.7574 22.1449 47.5084 21.0654 46.2613 20.0756C38.1205 13.6123 30.8328 11.6715 25.7369 14.6123C20.641 17.5551 18.6777 24.8367 20.2043 35.1205C20.4369 36.694 20.7492 38.3145 21.135 39.9715C21.4697 41.4266 21.8635 42.9104 22.3125 44.4164C23.4881 48.3715 25.0369 52.4838 26.9166 56.6367C27.7371 58.4531 28.6227 60.2754 29.5676 62.0979C30.4002 63.7061 31.2799 65.3121 32.2023 66.9121C33.1248 68.5121 34.0758 70.0754 35.0533 71.5998C36.1594 73.3305 37.2961 75.008 38.4574 76.6283C41.1146 80.3324 43.9002 83.7283 46.7391 86.7242C47.8187 87.8651 48.9084 88.9486 50.0002 89.967C51.243 91.1303 52.492 92.2078 53.7369 93.1977C56.7309 95.5752 59.6084 97.3404 62.3043 98.4733C68.6961 96.8568 74.5982 94.008 79.743 90.1957C80.4611 86.8857 80.4877 82.8307 79.7939 78.1531ZM75.2101 89.4531C74.6162 92.0205 73.5244 93.7797 71.9633 94.6797C70.4041 95.5816 68.3348 95.6471 65.8142 94.8797C63.0836 94.0449 59.8959 92.2205 56.5939 89.5981C55.4838 88.7164 54.3715 87.7572 53.2592 86.7266C52.1693 85.7143 51.0795 84.6326 49.998 83.4877C48.1408 81.5225 46.3041 79.3713 44.5123 77.0633C43.3164 75.5225 42.1389 73.9123 40.9898 72.2408C39.3225 69.8184 37.7123 67.2674 36.1816 64.6143C34.649 61.9611 33.2449 59.2918 31.9816 56.6367C31.1082 54.8061 30.302 52.9817 29.5674 51.1756C28.4633 48.4695 27.5184 45.8022 26.7449 43.2123C26.2959 41.7022 25.9022 40.2205 25.5734 38.7695C25.2346 37.292 24.9592 35.8471 24.751 34.4451C24.1307 30.2758 24.1449 26.6024 24.7877 23.8207C25.3816 21.2533 26.4754 19.4942 28.0346 18.5942C28.8773 18.1084 29.8672 17.8635 30.9957 17.8635C31.959 17.8635 33.0242 18.041 34.1834 18.3961C36.9141 19.2287 40.1018 21.0553 43.4037 23.6758C44.5139 24.5574 45.6281 25.5166 46.7385 26.5514C47.8303 27.5615 48.9182 28.6432 49.9977 29.7861C51.8568 31.7514 53.6936 33.9025 55.4875 36.2127C56.6834 37.7535 57.8609 39.3637 59.01 41.0352C60.6752 43.4576 62.2855 46.0086 63.816 48.6596C65.3486 51.3127 66.7527 53.982 68.016 56.6371C68.8894 58.4697 69.6957 60.2943 70.4303 62.1004C71.5344 64.8065 72.4793 67.4719 73.2527 70.0615C73.7017 71.5717 74.0955 73.0533 74.4262 74.5043C74.7629 75.9818 75.0385 77.4268 75.2467 78.8287C75.8674 82.9981 75.8531 86.6715 75.2101 89.4531Z" fill="#F2F2F2"/>
<path d="M83.5307 41.594C82.051 41.0104 80.4918 40.4695 78.8633 39.9715C77.4348 39.5367 75.9531 39.1348 74.4244 38.7695C70.4121 37.8104 66.0775 37.0961 61.5408 36.6471C59.5592 36.449 57.5367 36.3043 55.4877 36.2123C53.6795 36.1287 51.8469 36.0858 50 36.0858C48.1531 36.0858 46.3203 36.1285 44.5102 36.2123C42.4592 36.3041 40.4367 36.4512 38.4551 36.6471C33.9184 37.0961 29.5857 37.8104 25.5734 38.7695C24.0449 39.1348 22.5633 39.5369 21.1346 39.9715C19.5061 40.4674 17.9469 41.0104 16.4672 41.594C6.8 45.4102 1.47344 50.7531 1.47344 56.6367C1.47344 62.5203 6.8 67.8633 16.4674 71.6817C17.9471 72.2652 19.5041 72.8061 21.1326 73.3041C22.5611 73.7389 24.0428 74.1408 25.5715 74.5041C29.5838 75.4652 33.9184 76.1776 38.4572 76.6285C40.4389 76.8244 42.4613 76.9693 44.5123 77.0633C46.3205 77.1469 48.1531 77.1877 50 77.1877C51.8469 77.1877 53.6775 77.1469 55.4857 77.0633C57.5367 76.9693 59.5572 76.8244 61.5408 76.6285C66.0775 76.1795 70.4143 75.4652 74.4266 74.5041C75.9551 74.1389 77.4367 73.7389 78.8654 73.3022C80.492 72.8063 82.0512 72.2654 83.5307 71.6817C93.2 67.8633 98.5246 62.5205 98.5246 56.6367C98.5244 50.7531 93.2 45.4102 83.5307 41.594ZM91.0244 62.0611C88.9387 64.0102 85.7633 65.857 81.8428 67.4061C80.5225 67.9264 79.1346 68.4121 77.6855 68.857C76.2631 69.2959 74.7836 69.6979 73.2529 70.0611C70.6223 70.6877 67.8406 71.202 64.9447 71.6C63.0141 71.8674 61.0324 72.0816 59.01 72.2389C56.0773 72.4736 53.0631 72.592 49.9998 72.592C46.9365 72.592 43.9223 72.4736 40.9897 72.241C38.9672 72.0818 36.9836 71.8676 35.0529 71.6002C32.157 71.2022 29.3754 70.6879 26.7447 70.0613C25.2141 69.6981 23.7346 69.2961 22.3121 68.8572C20.8631 68.4123 19.4754 67.9266 18.1549 67.4063C14.2346 65.8572 11.059 64.0104 8.97324 62.0613C7.04668 60.2633 6.06914 58.4389 6.06914 56.6369C6.06914 54.835 7.04668 53.0104 8.97324 51.2125C11.059 49.2635 14.2344 47.4166 18.1549 45.8676C19.4752 45.3473 20.8631 44.8615 22.3121 44.4166C23.7346 43.9777 25.2141 43.5758 26.7447 43.2125C29.3754 42.5859 32.157 42.0717 35.0529 41.6736C36.9836 41.4063 38.9672 41.192 40.9897 41.0328C43.9223 40.8002 46.9365 40.6818 49.9998 40.6818C53.0631 40.6818 56.0773 40.8002 59.01 41.035C61.0324 41.1922 63.0141 41.4065 64.9447 41.6738C67.8406 42.0719 70.6223 42.5861 73.2529 43.2127C74.7836 43.576 76.2631 43.9779 77.6855 44.4168C79.1346 44.8617 80.5223 45.3475 81.8428 45.8678C85.7631 47.4168 88.9387 49.2637 91.0244 51.2127C92.951 53.0108 93.9285 54.8352 93.9285 56.6371C93.9285 58.4389 92.951 60.2633 91.0244 62.0611Z" fill="#F2F2F2"/>
<path d="M74.2611 14.6123C69.1652 11.6715 61.8775 13.6123 53.7367 20.0756C52.4918 21.0654 51.2428 22.1449 50 23.3082C48.9082 24.3266 47.8184 25.4102 46.7389 26.551C43.9 29.5469 41.1145 32.9428 38.4553 36.6469C37.2941 38.2672 36.1572 39.9449 35.0533 41.6734C34.0758 43.1979 33.1248 44.7611 32.2023 46.3611C31.2799 47.9611 30.4004 49.5672 29.5676 51.1754C28.6227 52.9979 27.7369 54.8223 26.9166 56.6365C25.0369 60.7916 23.4881 64.9018 22.3125 68.8568C21.8635 70.365 21.4697 71.8486 21.1328 73.3037C20.7492 74.9609 20.4369 76.5793 20.2043 78.1527C19.5104 82.8283 19.5369 86.8834 20.2553 90.1936C25.4002 94.0078 31.3022 96.8568 37.6941 98.4733C40.39 97.3406 43.2676 95.5752 46.2615 93.1977C47.5084 92.2078 48.7574 91.1283 50.0004 89.967C51.0922 88.9486 52.1801 87.867 53.2596 86.7262C56.0963 83.7303 58.884 80.3322 61.5412 76.6281C62.7024 75.0076 63.8393 73.3301 64.9453 71.5996C65.9229 70.0752 66.8738 68.5119 67.7963 66.9119C68.7207 65.3139 69.5983 63.7078 70.4311 62.0996C71.376 60.2772 72.2617 58.4527 73.0842 56.6363C74.9617 52.4832 76.5107 48.3711 77.6861 44.416C78.133 42.91 78.527 41.4262 78.8637 39.9711C79.2494 38.3139 79.5596 36.6936 79.7943 35.1201C81.3203 24.8367 79.3572 17.5551 74.2611 14.6123ZM73.2531 43.2123C72.4797 45.8022 71.5348 48.4674 70.4307 51.1734C69.6959 52.9795 68.8898 54.8041 68.0164 56.6367C66.7531 59.2918 65.349 61.9611 63.8164 64.6143C62.2857 67.2652 60.6756 69.8162 59.0104 72.2387C57.8594 73.9121 56.6818 75.5223 55.4859 77.0631C53.6941 79.3713 51.8574 81.5223 49.9982 83.4875C48.9188 84.6303 47.8309 85.7119 46.7391 86.7242C45.6289 87.7568 44.5147 88.716 43.4043 89.5977C40.1023 92.2201 36.9145 94.0445 34.184 94.8793C31.6637 95.6467 29.5941 95.5813 28.035 94.6793C26.4758 93.7793 25.3818 92.0201 24.7881 89.4527C24.1453 86.6711 24.1309 82.9977 24.7514 78.8283C24.9596 77.4264 25.235 75.9815 25.5717 74.5039C25.9023 73.0529 26.2961 71.5713 26.7451 70.0611C27.5186 67.4713 28.4635 64.8039 29.5676 62.0979C30.3023 60.2918 31.1084 58.4672 31.9818 56.6367C33.2451 53.9817 34.6492 51.3123 36.1818 48.6592C37.7125 46.0061 39.3227 43.4551 40.99 41.0326C42.1391 39.3611 43.3145 37.751 44.5104 36.2123C46.3043 33.9022 48.141 31.7512 49.9981 29.7858C51.0797 28.6408 52.1695 27.5592 53.2592 26.549C54.3715 25.5164 55.4836 24.5572 56.5939 23.6756C59.8959 21.0553 63.0838 19.2287 65.8143 18.3959C66.9734 18.0408 68.0387 17.8633 69.002 17.8633C70.1305 17.8633 71.1223 18.1082 71.9631 18.594C73.5242 19.494 74.6162 21.2531 75.21 23.8205C75.8527 26.6022 75.8672 30.2756 75.2467 34.4449C75.0385 35.8469 74.7631 37.2918 74.4242 38.7693C74.0959 40.2203 73.702 41.702 73.2531 43.2123Z" fill="#F2F2F2"/>
<path d="M50 65.757C55.037 65.757 59.1203 61.6737 59.1203 56.6367C59.1203 51.5997 55.037 47.5164 50 47.5164C44.963 47.5164 40.8797 51.5997 40.8797 56.6367C40.8797 61.6737 44.963 65.757 50 65.757Z" fill="#F2F2F2"/>
</svg>
